<?xml version="1.0" encoding="UTF-8" standalone="no"?>
<!-- Created with Inkscape (http://www.inkscape.org/) -->

<svg
   width="200mm"
   height="200mm"
   viewBox="0 0 200 200"
   version="1.1"
   id="svg462"
   xml:space="preserve"
   inkscape:version="1.2.2 (b0a8486541, 2022-12-01)"
   sodipodi:docname="bed+.svg"
   xmlns:inkscape="http://www.inkscape.org/namespaces/inkscape"
   xmlns:sodipodi="http://sodipodi.sourceforge.net/DTD/sodipodi-0.dtd"
   xmlns="http://www.w3.org/2000/svg"
   xmlns:svg="http://www.w3.org/2000/svg"><sodipodi:namedview
     id="namedview464"
     pagecolor="#000000"
     bordercolor="#000000"
     borderopacity="0.25"
     inkscape:showpageshadow="2"
     inkscape:pageopacity="0"
     inkscape:pagecheckerboard="0"
     inkscape:deskcolor="#d1d1d1"
     inkscape:document-units="mm"
     showgrid="false"
     inkscape:zoom="0.74831647"
     inkscape:cx="271.94377"
     inkscape:cy="444.99889"
     inkscape:window-width="1920"
     inkscape:window-height="1019"
     inkscape:window-x="0"
     inkscape:window-y="0"
     inkscape:window-maximized="1"
     inkscape:current-layer="layer1" /><defs
     id="defs459"><inkscape:path-effect
       effect="mirror_symmetry"
       start_point="6.536408,4.5984546"
       end_point="6.536408,14.010368"
       center_point="6.536408,9.3044113"
       id="path-effect3554"
       is_visible="true"
       lpeversion="1.2"
       lpesatellites=""
       mode="vertical"
       discard_orig_path="false"
       fuse_paths="false"
       oposite_fuse="false"
       split_items="false"
       split_open="false"
       link_styles="false" /><inkscape:path-effect
       effect="mirror_symmetry"
       start_point="23.68021,4.11"
       end_point="23.68,15.08"
       center_point="7.54,9.595"
       id="path-effect3394"
       is_visible="true"
       lpeversion="1.2"
       lpesatellites=""
       mode="vertical"
       discard_orig_path="false"
       fuse_paths="false"
       oposite_fuse="false"
       split_items="false"
       split_open="false"
       link_styles="false" /></defs><g
     inkscape:label="Layer 1"
     inkscape:groupmode="layer"
     id="layer1"><path
       d="m 147.54001,100.14229 h 15.37524 V 84.767058 h 10.25014 v 15.375232 h 15.37523 v 10.25017 h -15.37523 v 15.37522 h -10.25164 v -15.37522 h -15.37523 z"
       id="path890"
       style="fill:#ffffff;stroke-width:5.12507"
       sodipodi:nodetypes="ccccccccccccc" /><path
       d="m 147.5753,100.16822 h 40.88699 v 10.22173 H 147.5753 Z"
       id="path825"
       style="fill:#ffffff;stroke-width:5.11087"
       sodipodi:nodetypes="ccccc" /><g
       style="clip-rule:evenodd;fill-rule:evenodd;image-rendering:optimizeQuality;shape-rendering:geometricPrecision;text-rendering:geometricPrecision"
       id="g1489"
       transform="matrix(0.20127768,0,0,0.20127672,13.782,34.660549)"><path
         fill="#fa6831"
         d="M 176.83,392.22 C 132.05,348 126.39,321.93 165.5,271.49 c 13.6,-17.57 19.84,-35.14 19.84,-52.16 0,-35.7 -26.07,-70.85 -60.07,-111.67 l -53.85,51.02 c 51.02,59.51 46.47,65.76 9.63,117.89 -11.9,17.01 -16.43,33.45 -16.43,50.44 0,43.08 32.31,83.89 61.79,114.5 l 51.02,-49.32 v 0 l -0.59,0.02 z m 322.53,0 C 454.58,348 448.92,321.93 488.03,271.49 c 13.6,-17.57 19.84,-35.14 19.84,-52.16 0,-35.7 -26.07,-70.85 -60.08,-111.67 l -53.85,51.02 c 51.02,59.51 46.47,65.76 9.63,117.89 -11.91,17.01 -16.43,33.45 -16.43,50.44 0,43.08 32.31,83.89 61.79,114.5 l 51.02,-49.32 v 0 l -0.59,0.02 z m -163.25,0 C 291.33,348 285.67,321.93 324.78,271.49 c 13.6,-17.57 19.85,-35.14 19.85,-52.16 0,-35.7 -26.07,-70.85 -60.08,-111.67 l -53.85,51.02 c 51.02,59.51 46.47,65.76 9.64,117.89 -11.91,17.01 -16.44,33.45 -16.44,50.44 0,43.08 32.31,83.89 61.79,114.5 l 51.02,-49.32 v 0 l -0.59,0.02 z"
         id="path1477" /><path
         fill="#ffffff"
         fill-rule="nonzero"
         d="m 0,492.55 h 571.35 v 78.8 H 0 Z"
         id="path1479" /></g></g></svg>
