<svg xmlns="http://www.w3.org/2000/svg" width="24" height="24" fill-rule="evenodd" clip-rule="evenodd" image-rendering="optimizeQuality" shape-rendering="geometricPrecision" text-rendering="geometricPrecision" viewBox="0 0 571.35 571.35">
   <path fill="#fa6831" d="M176.83 392.22c-44.78,-44.22 -50.44,-70.29 -11.33,-120.73 13.6,-17.57 19.84,-35.14 19.84,-52.16 0,-35.7 -26.07,-70.85 -60.07,-111.67l-53.85 51.02c51.02,59.51 46.47,65.76 9.63,117.89 -11.9,17.01 -16.43,33.45 -16.43,50.44 0,43.08 32.31,83.89 61.79,114.5l51.02 -49.32 0 0 -0.59 0.02zm322.53 0c-44.78,-44.22 -50.44,-70.29 -11.33,-120.73 13.6,-17.57 19.84,-35.14 19.84,-52.16 0,-35.7 -26.07,-70.85 -60.08,-111.67l-53.85 51.02c51.02,59.51 46.47,65.76 9.63,117.89 -11.91,17.01 -16.43,33.45 -16.43,50.44 0,43.08 32.31,83.89 61.79,114.5l51.02 -49.32 0 0 -0.59 0.02zm-163.25 0c-44.78,-44.22 -50.44,-70.29 -11.33,-120.73 13.6,-17.57 19.85,-35.14 19.85,-52.16 0,-35.7 -26.07,-70.85 -60.08,-111.67l-53.85 51.02c51.02,59.51 46.47,65.76 9.64,117.89 -11.91,17.01 -16.44,33.45 -16.44,50.44 0,43.08 32.31,83.89 61.79,114.5l51.02 -49.32 0 0 -0.59 0.02z"></path>
   <path fill="#fff" fill-rule="nonzero" d="M0 492.55L571.35 492.55 571.35 571.35 0 571.35z"></path>
</svg>