<!DOCTYPE svg PUBLIC "-//W3C//DTD SVG 1.1//EN" "http://www.w3.org/Graphics/SVG/1.1/DTD/svg11.dtd">
<svg xmlns="http://www.w3.org/2000/svg" xml:space="preserve" width="200" height="267" fill-rule="evenodd" clip-rule="evenodd" image-rendering="optimizeQuality" shape-rendering="geometricPrecision" text-rendering="geometricPrecision" viewBox="0 0 85.12 113.51">
  <path fill="#fa6831" d="M85.12 42.46c0 23.44-19.06 42.46-42.56 42.46C19.06 84.92 0 65.9 0 42.46S19.06 0 42.56 0c23.49 0 42.56 19.02 42.56 42.46zm-75.66 0c0 18.2 14.85 33.02 33.1 33.02s33.1-14.82 33.1-33.02c0-18.21-14.85-33.02-33.1-33.02S9.46 24.25 9.46 42.46z"/>
  <path fill="#fff" d="m59.09 91.4 8.32 12.58H17.66l8.32-12.58c-3-1.14-5.87-2.56-8.55-4.26L3.68 107.91c-.75 1.13-.81 2.49-.18 3.69.64 1.19 1.79 1.91 3.14 1.91h71.72c1.36 0 2.52-.7 3.15-1.91.64-1.2.58-2.56-.17-3.69L67.6 87.14c-2.69 1.7-5.54 3.12-8.56 4.26h.05zm-7.03-48.82c0-5.25-4.28-9.53-9.52-9.53-5.27 0-9.53 4.28-9.53 9.53 0 5.24 4.28 9.52 9.53 9.52 5.24 0 9.52-4.28 9.52-9.52z"/>
</svg>
