<?xml version="1.0" encoding="UTF-8" standalone="no"?>
<!-- Created with Inkscape (http://www.inkscape.org/) -->

<svg
   width="200mm"
   height="200mm"
   viewBox="0 0 200 200"
   version="1.1"
   id="svg462"
   xml:space="preserve"
   inkscape:version="1.2.2 (b0a8486541, 2022-12-01)"
   sodipodi:docname="chamber-.svg"
   xmlns:inkscape="http://www.inkscape.org/namespaces/inkscape"
   xmlns:sodipodi="http://sodipodi.sourceforge.net/DTD/sodipodi-0.dtd"
   xmlns="http://www.w3.org/2000/svg"
   xmlns:svg="http://www.w3.org/2000/svg"><sodipodi:namedview
     id="namedview464"
     pagecolor="#000000"
     bordercolor="#000000"
     borderopacity="0.25"
     inkscape:showpageshadow="2"
     inkscape:pageopacity="0"
     inkscape:pagecheckerboard="0"
     inkscape:deskcolor="#d1d1d1"
     inkscape:document-units="mm"
     showgrid="false"
     inkscape:zoom="0.52913967"
     inkscape:cx="395.92571"
     inkscape:cy="436.5577"
     inkscape:window-width="1920"
     inkscape:window-height="1019"
     inkscape:window-x="1920"
     inkscape:window-y="0"
     inkscape:window-maximized="1"
     inkscape:current-layer="layer1" /><defs
     id="defs459"><inkscape:path-effect
       effect="mirror_symmetry"
       start_point="6.536408,4.5984546"
       end_point="6.536408,14.010368"
       center_point="6.536408,9.3044113"
       id="path-effect3554"
       is_visible="true"
       lpeversion="1.2"
       lpesatellites=""
       mode="vertical"
       discard_orig_path="false"
       fuse_paths="false"
       oposite_fuse="false"
       split_items="false"
       split_open="false"
       link_styles="false" /><inkscape:path-effect
       effect="mirror_symmetry"
       start_point="23.68021,4.11"
       end_point="23.68,15.08"
       center_point="7.54,9.595"
       id="path-effect3394"
       is_visible="true"
       lpeversion="1.2"
       lpesatellites=""
       mode="vertical"
       discard_orig_path="false"
       fuse_paths="false"
       oposite_fuse="false"
       split_items="false"
       split_open="false"
       link_styles="false" /></defs><g
     inkscape:label="Layer 1"
     inkscape:groupmode="layer"
     id="layer1"><g
       style="clip-rule:evenodd;fill-rule:evenodd;image-rendering:optimizeQuality;shape-rendering:geometricPrecision;text-rendering:geometricPrecision"
       id="g1071"
       transform="matrix(4.0004591,0,0,4.0004591,11.702188,62.719257)"><path
         fill="#fa6831"
         d="M 7.54,5.14 C 7.54,4.57 7.08,4.11 6.51,4.11 5.94,4.11 5.48,4.57 5.48,5.14 v 8.91 c 0,0.57 0.46,1.03 1.03,1.03 0.57,0 1.03,-0.46 1.03,-1.03 z m 29.063839,0 c 0,-0.57 0.46,-1.03 1.03,-1.03 0.57,0 1.03,0.46 1.03,1.03 v 8.91 c 0,0.57 -0.46,1.03 -1.03,1.03 -0.57,0 -1.03,-0.46 -1.03,-1.03 z"
         id="path2"
         style="fill:none;fill-rule:nonzero"
         inkscape:path-effect="#path-effect3394"
         inkscape:original-d="M 7.54,5.14 C 7.54,4.57 7.08,4.11 6.51,4.11 5.94,4.11 5.48,4.57 5.48,5.14 v 8.91 c 0,0.57 0.46,1.03 1.03,1.03 0.57,0 1.03,-0.46 1.03,-1.03 z"
         class="UnoptimicedTransforms" /><path
         fill="#ffffff"
         d="M 27.41,1.37 C 27.41,0.72 26.89,0 26.04,0 H 1.37 C 0.52,0 0,0.71 0,1.37 v 16.45 c 0,0.85 0.71,1.37 1.37,1.37 h 24.67 c 0.66,0 1.37,-0.52 1.37,-1.37 V 1.37 Z M 2.06,2.06 h 23.3 V 17.13 H 2.06 Z"
         id="path4"
         style="fill-rule:nonzero" /><path
         style="fill:none;stroke:#fa6831;stroke-width:1.84224;stroke-linecap:round;stroke-linejoin:round;stroke-dasharray:none;stroke-opacity:1"
         d="M 4.8047179,4.5984546 7.714185,7.1428487 4.8269504,9.8221287 7.698324,12.361914 4.8368465,14.782132 M 22.605282,4.5984546 l -2.909467,2.5443941 2.887235,2.67928 -2.871374,2.5397853 2.861477,2.420218"
         id="path3552"
         sodipodi:nodetypes="ccccc"
         clip-path="none" /></g><path
       d="m 147.5753,100.16822 h 40.88699 v 10.22173 H 147.5753 Z"
       id="path825"
       style="fill:#ffffff;stroke-width:5.11087"
       sodipodi:nodetypes="ccccc" /></g></svg>
