<svg xmlns="http://www.w3.org/2000/svg" width="24" height="24" fill-rule="evenodd" clip-rule="evenodd" image-rendering="optimizeQuality" shape-rendering="geometricPrecision" text-rendering="geometricPrecision" viewBox="0 0 571.43 571.43">
   <path fill="#fa6831" d="M301.58 285.71L301.58 190.32 269.78 190.32 269.78 317.51 381.04 317.51 381.04 285.71z"></path>
   <path fill="#fff" d="M140.5 140.51c37.17,-37.17 88.52,-60.16 145.21,-60.16 56.71,0 108.05,22.99 145.2,60.15 37.17,37.17 60.16,88.52 60.16,145.21 0,56.71 -22.99,108.05 -60.15,145.2 -37.17,37.17 -88.52,60.16 -145.21,60.16 -56.71,0 -108.05,-22.99 -145.2,-60.15 -37.17,-37.17 -60.16,-88.52 -60.16,-145.21 0,-56.71 22.99,-108.05 60.15,-145.2zm261.5 28.84c-29.79,-29.79 -70.93,-48.26 -116.29,-48.26 -45.36,0 -86.49,18.46 -116.29,48.26 -29.79,29.79 -48.25,70.93 -48.25,116.29 0,45.36 18.46,86.5 48.25,116.29 29.79,29.79 70.93,48.25 116.29,48.25 45.36,0 86.5,-18.46 116.29,-48.25 29.79,-29.79 48.25,-70.93 48.25,-116.29 0,-45.35 -18.46,-86.49 -48.25,-116.29z"></path>
</svg>