<!DOCTYPE svg PUBLIC "-//W3C//DTD SVG 1.1//EN" "http://www.w3.org/Graphics/SVG/1.1/DTD/svg11.dtd">
<svg xmlns="http://www.w3.org/2000/svg" xml:space="preserve" width="244" height="244" fill-rule="evenodd" clip-rule="evenodd" image-rendering="optimizeQuality" shape-rendering="geometricPrecision" text-rendering="geometricPrecision" viewBox="0 0 220.34 220.34">
  <defs/>
  <g id="Layer_x0020_1">
    <g id="_2420139362064">
      <path fill="#fff" d="M110.14 19.87c-14.55 0-26.33 11.78-26.33 26.32v56.65c0 4.41-1.95 8.61-5.29 11.47-10.57 8.98-17.26 22.31-17.26 37.25 0 27.03 21.88 48.92 48.91 48.92 27.03 0 48.92-21.89 48.92-48.92 0-14.94-6.73-28.27-17.26-37.25-3.38-2.86-5.3-7.06-5.3-11.47V46.19c0-14.54-11.77-26.32-26.32-26.32h-.07zm0 15.06c6.21 0 11.29 5.05 11.29 11.3v56.64c0 11.81 3.87 17.19 10.62 22.95 7.61 6.45 11.97 15.86 11.97 25.78 0 18.66-15.19 33.87-33.88 33.87-18.66 0-33.87-15.18-33.87-33.87 0-9.92 4.35-19.33 11.96-25.78 6.76-5.72 10.62-11.14 10.62-22.95V46.23c0-6.21 5.05-11.3 11.3-11.3h-.01z"/>
      <path fill="#f8651b" d="M125.99 130.63c-7.6-6.7-12.08-13.06-12.08-24.23V93.92h-7.52v12.48c0 11.17-4.5 17.56-12.08 24.23-5.96 5.26-10.47 12.35-10.47 20.93 0 14.55 11.78 26.33 26.33 26.33 14.55 0 26.32-11.78 26.32-26.33 0-8.58-4.5-15.67-10.46-20.93h-.04zM211.99 72.22h-64.86V61.43h64.86v10.79z"/>
    </g>
  </g>
</svg>
