<!DOCTYPE svg PUBLIC "-//W3C//DTD SVG 1.1//EN" "http://www.w3.org/Graphics/SVG/1.1/DTD/svg11.dtd">
<svg xmlns="http://www.w3.org/2000/svg" xml:space="preserve" width="69" height="55" fill-rule="evenodd" clip-rule="evenodd" image-rendering="optimizeQuality" shape-rendering="geometricPrecision" text-rendering="geometricPrecision" viewBox="0 0 25.85 20.65">
  <path fill="#e6e6e6" fill-rule="nonzero" d="M.76 8.48 9.1.14c.14-.14.33-.18.52-.1.18.07.29.24.29.44v1.79c0 .13-.05.25-.14.34l-7.44 7.44c-.15.15-.15.4 0 .56l7.44 7.43c.09.1.14.21.14.34v1.79c0 .2-.11.37-.29.44-.19.08-.38.04-.52-.1L.76 12.18c-1.01-1.02-1.01-2.69 0-3.7zM16.94.45l8.14 8.15a2.607 2.607 0 0 1 0 3.69l-8.14 8.15a.476.476 0 0 1-.82-.34v-1.79c0-.13.05-.24.14-.33l7.25-7.26c.16-.15.16-.4 0-.55l-7.25-7.25a.494.494 0 0 1-.14-.34V.79c0-.2.12-.37.3-.44a.46.46 0 0 1 .52.1z"/>
</svg>
