<?xml version="1.0" encoding="UTF-8" standalone="no"?>
<!-- Created with Inkscape (http://www.inkscape.org/) -->

<svg
   width="500"
   height="500"
   viewBox="0 0 132.29167 132.29167"
   version="1.1"
   id="svg5"
   inkscape:version="1.2.2 (732a01da63, 2022-12-09)"
   sodipodi:docname="AzteQ.svg"
   xmlns:inkscape="http://www.inkscape.org/namespaces/inkscape"
   xmlns:sodipodi="http://sodipodi.sourceforge.net/DTD/sodipodi-0.dtd"
   xmlns="http://www.w3.org/2000/svg"
   xmlns:svg="http://www.w3.org/2000/svg">
  <sodipodi:namedview
     id="namedview7"
     pagecolor="#505050"
     bordercolor="#ffffff"
     borderopacity="1"
     inkscape:showpageshadow="0"
     inkscape:pageopacity="0"
     inkscape:pagecheckerboard="1"
     inkscape:deskcolor="#505050"
     inkscape:document-units="mm"
     showgrid="false"
     inkscape:zoom="1.4770342"
     inkscape:cx="225.45178"
     inkscape:cy="226.12881"
     inkscape:window-width="1920"
     inkscape:window-height="1009"
     inkscape:window-x="-8"
     inkscape:window-y="568"
     inkscape:window-maximized="1"
     inkscape:current-layer="layer1" />
  <defs
     id="defs2" />
  <g
     inkscape:label="Vrstva 1"
     inkscape:groupmode="layer"
     id="layer1">
    <path
       style="fill:#4d4d4d;stroke:#333333;stroke-width:1;stroke-linecap:round;stroke-dasharray:none"
       d="m 57.664776,33.247025 c 7.950003,-3.206176 44.706254,-3.587827 53.294464,0.09814 l 0.0981,67.722255 c -7.59012,-3.369755 -46.195076,-3.991362 -53.687054,-0.0982 z"
       id="path1121"
       sodipodi:nodetypes="ccccc" />
    <path
       style="fill:#1a1a1a;stroke:#333333;stroke-width:1;stroke-linecap:round;stroke-dasharray:none"
       d="M 57.566628,33.148877 C 56.683342,39.63703 87.74405,47.5404 94.470347,47.478511 101.21353,46.848929 112.67314,36.998434 110.95924,33.345171 103.83362,30.382439 66.764793,29.206036 57.566628,33.148877 Z"
       id="path839"
       sodipodi:nodetypes="cccc" />
    <path
       style="fill:#1a1a1a;stroke:#333333;stroke-width:1;stroke-linecap:round;stroke-dasharray:none"
       d="m 57.586544,111.15889 c -0.883286,6.48815 30.177422,14.39152 36.903719,14.32964 6.743177,-0.62958 18.202787,-10.48009 16.488897,-14.13334 l 0.19231,-9.04851 -53.691056,-1.00034 z"
       id="path839-6-7"
       sodipodi:nodetypes="cccccc" />
    <path
       style="fill:#1a1a1a;stroke:#333333;stroke-width:1;stroke-linecap:round;stroke-dasharray:none"
       d="m 57.488397,100.85334 c -0.883286,6.48815 30.177423,14.39152 36.90372,14.32964 6.743183,-0.62959 18.202793,-10.48009 16.488903,-14.13335 -7.12563,-2.962728 -44.194458,-4.139131 -53.392623,-0.19629 z"
       id="path839-6"
       sodipodi:nodetypes="cccc" />
    <path
       style="fill:#1a1a1a;stroke:#333333;stroke-width:1;stroke-linecap:round;stroke-dasharray:none"
       d="m 94.961087,47.57666 v 67.6241 c 5.124513,-0.19805 17.362663,-9.86936 15.998153,-14.23149 l 0.0981,-67.624099 c 1.01948,5.021435 -11.077872,13.582333 -16.096299,14.231489 z"
       id="path1123"
       sodipodi:nodetypes="ccccc" />
    <path
       style="opacity:0.32;fill:#0000ff;stroke:#333333;stroke-width:1;stroke-linecap:round;stroke-dasharray:none"
       d="M 57.537094,4.4164677 C 57.062851,9.0085169 79.872728,17.382935 94.944366,18.504922 v 67.59682 C 86.866427,86.768364 55.330223,76.853855 57.606495,72.082689 Z"
       id="path1268"
       sodipodi:nodetypes="ccccc" />
    <path
       style="opacity:1;fill:#ffff00;stroke:#e6e6e6;stroke-width:1.35977;stroke-linecap:round;stroke-dasharray:none"
       d="m 35.370139,49.620283 c -2.633144,0.07344 -13.267922,16.863035 -11.813517,18.999058 1.302379,1.912751 21.259576,1.632768 22.409145,-0.243577 C 46.99443,66.696762 37.725455,49.554592 35.370139,49.620283 Z"
       id="path2070"
       sodipodi:nodetypes="ssss" />
    <path
       style="opacity:1;fill:#000000;stroke:#000000;stroke-width:0.605479;stroke-linecap:round;stroke-dasharray:none"
       d="m 33.363879,56.810263 2.914338,-0.07668 -0.958663,6.825687 z"
       id="path2126" />
    <path
       style="opacity:1;fill:#000000;stroke:#000000;stroke-width:0.605479;stroke-linecap:round;stroke-dasharray:none"
       d="m 35.511287,64.824693 c -0.559492,-0.04799 -1.354144,0.75876 -1.112051,1.265438 0.264743,0.554077 1.551825,0.465228 1.840635,-0.07668 0.218582,-0.410142 -0.265533,-1.149029 -0.728584,-1.188743 z"
       id="path2128"
       sodipodi:nodetypes="ssss" />
  </g>
</svg>
