<!DOCTYPE svg PUBLIC "-//W3C//DTD SVG 1.1//EN" "http://www.w3.org/Graphics/SVG/1.1/DTD/svg11.dtd">
<svg xmlns="http://www.w3.org/2000/svg" xml:space="preserve" width="56" height="56" fill-rule="evenodd" clip-rule="evenodd" image-rendering="optimizeQuality" shape-rendering="geometricPrecision" text-rendering="geometricPrecision" viewBox="0 0 6.51 6.51">
  <path fill="#fff" d="M2.89 4.34h.73v.72h-.73v-.72zm0-2.89h.73v2.17h-.73V1.45zM3.25 0C1.46 0 0 1.46 0 3.25c0 1.8 1.46 3.26 3.25 3.26 1.8 0 3.26-1.46 3.26-3.26C6.51 1.46 5.05 0 3.25 0zm0 5.79C1.86 5.79.72 4.65.72 3.25A2.54 2.54 0 0 1 3.25.72c1.4 0 2.54 1.14 2.54 2.53 0 1.4-1.14 2.54-2.54 2.54z"/>
</svg>
