<?xml version="1.0" encoding="UTF-8" standalone="no"?>
<!-- Created with Inkscape (http://www.inkscape.org/) -->

<svg
   width="200mm"
   height="200mm"
   viewBox="0 0 200 200"
   version="1.1"
   id="svg462"
   xml:space="preserve"
   inkscape:version="1.2.2 (b0a8486541, 2022-12-01)"
   sodipodi:docname="extruder+.svg"
   xmlns:inkscape="http://www.inkscape.org/namespaces/inkscape"
   xmlns:sodipodi="http://sodipodi.sourceforge.net/DTD/sodipodi-0.dtd"
   xmlns="http://www.w3.org/2000/svg"
   xmlns:svg="http://www.w3.org/2000/svg"><sodipodi:namedview
     id="namedview464"
     pagecolor="#000000"
     bordercolor="#000000"
     borderopacity="0.25"
     inkscape:showpageshadow="2"
     inkscape:pageopacity="0"
     inkscape:pagecheckerboard="0"
     inkscape:deskcolor="#d1d1d1"
     inkscape:document-units="mm"
     showgrid="false"
     inkscape:zoom="0.74831647"
     inkscape:cx="270.60743"
     inkscape:cy="444.99889"
     inkscape:window-width="1920"
     inkscape:window-height="1019"
     inkscape:window-x="0"
     inkscape:window-y="0"
     inkscape:window-maximized="1"
     inkscape:current-layer="layer1" /><defs
     id="defs459"><inkscape:path-effect
       effect="mirror_symmetry"
       start_point="6.536408,4.5984546"
       end_point="6.536408,14.010368"
       center_point="6.536408,9.3044113"
       id="path-effect3554"
       is_visible="true"
       lpeversion="1.2"
       lpesatellites=""
       mode="vertical"
       discard_orig_path="false"
       fuse_paths="false"
       oposite_fuse="false"
       split_items="false"
       split_open="false"
       link_styles="false" /><inkscape:path-effect
       effect="mirror_symmetry"
       start_point="23.68021,4.11"
       end_point="23.68,15.08"
       center_point="7.54,9.595"
       id="path-effect3394"
       is_visible="true"
       lpeversion="1.2"
       lpesatellites=""
       mode="vertical"
       discard_orig_path="false"
       fuse_paths="false"
       oposite_fuse="false"
       split_items="false"
       split_open="false"
       link_styles="false" /></defs><g
     inkscape:label="Layer 1"
     inkscape:groupmode="layer"
     id="layer1"><path
       d="m 147.54001,100.14229 h 15.37524 V 84.767058 h 10.25014 v 15.375232 h 15.37523 v 10.25017 h -15.37523 v 15.37522 h -10.25164 v -15.37522 h -15.37523 z"
       id="path890"
       style="fill:#ffffff;stroke-width:5.12507"
       sodipodi:nodetypes="ccccccccccccc" /><path
       d="m 147.5753,100.16822 h 40.88699 v 10.22173 H 147.5753 Z"
       id="path825"
       style="fill:#ffffff;stroke-width:5.11087"
       sodipodi:nodetypes="ccccc" /><g
       style="clip-rule:evenodd;fill-rule:evenodd;image-rendering:optimizeQuality;shape-rendering:geometricPrecision;text-rendering:geometricPrecision"
       id="g1597"
       transform="matrix(0.49092009,0,0,0.49092223,8.1782968,40.571)"><path
         fill="#fa6831"
         d="m 132.18,115.91 c 0,51.04 7.82,42.55 -80.26,42.55 v 8.97 h 146.02 c 8.15,0 14.76,6.61 14.76,14.79 v 38.32 c 0,8.15 -6.61,14.76 -14.79,14.76 H 37.41 c -19.03,-0.21 -19.02,-29.37 0,-29.58 h 145.98 v -8.98 H 37.37 c -8.15,0 -14.76,-6.61 -14.76,-14.79 v -38.3 c 0,-8.15 6.61,-14.76 14.79,-14.76 h 65.47 v -12.97 h 29.32 z"
         id="path1585" /><path
         fill="#ffffff"
         d="m 184.19,0 v 54.4 l -47.25,61.51 H 97.86 L 50.61,54.4 V 0 h 29.57 v 44.36 l 31.94,41.97 h 10.32 L 154.66,44.36 V 0 Z"
         id="path1587" /></g></g></svg>
