<svg xmlns="http://www.w3.org/2000/svg" width="64" height="64" fill-rule="evenodd" clip-rule="evenodd" image-rendering="optimizeQuality" shape-rendering="geometricPrecision" text-rendering="geometricPrecision" viewBox="0 0 800.1 800.1">
    <path fill="#fff" d="M400.06 48.03c-194.43,0 -352.05,157.61 -352.05,352.04 0,65.23 17.74,126.3 48.67,178.67l0 -178.67 0 -0.73c0.4,-167.21 136.08,-302.64 303.35,-302.64 269.41,0 405.15,327.26 214.51,517.89 -144.67,144.71 -368.03,101.35 -467.31,-45.75l0 76.2c63.98,66.02 153.6,107.06 252.79,107.06 194.43,0 352.05,-157.61 352.05,-352.05 0,-194.43 -157.61,-352.05 -352.05,-352.05l0.03 0.03zm93.18 258.87c-82.76,-82.79 -224.91,-23.88 -224.91,93.18 0,117.03 142.15,175.96 224.91,93.18 51.43,-51.46 51.47,-134.88 0,-186.32l0 -0.04zm-93.18 -1.64c-52.34,0 -94.78,42.44 -94.78,94.78 0,52.34 42.44,94.78 94.78,94.78 52.34,0 94.79,-42.44 94.79,-94.78 0,-52.34 -42.45,-94.78 -94.79,-94.78z"></path>
    <path fill="#fa6831" d="M400.06 96.7c269.42,0 405.16,327.26 214.52,517.89 -144.67,144.71 -368.03,101.35 -467.31,-45.75l0 156.22c0,13.97 -11.33,25.28 -25.28,25.28 -13.97,0 -25.28,-11.33 -25.28,-25.28l0 -324.97 0 -0.73c0.4,-167.21 136.08,-302.65 303.35,-302.65l0 -0zm93.18 210.2c-82.76,-82.79 -224.91,-23.88 -224.91,93.18 0,117.03 142.15,175.96 224.91,93.18 51.43,-51.46 51.47,-134.88 0,-186.32l0 -0.04z"></path>
</svg>