<svg xmlns="http://www.w3.org/2000/svg" width="24" height="24" fill-rule="evenodd" clip-rule="evenodd" image-rendering="optimizeQuality" shape-rendering="geometricPrecision" text-rendering="geometricPrecision" viewBox="0 0 363.64 363.64">
    <path fill="#fa6831" d="M257.57 90.91l-151.51 0 0 15.15 151.51 0 0 -15.15zm0 106.06l-151.51 0 0 -15.15 151.51 0 0 15.15zm0 -60.61l-151.51 0 0 15.15 151.51 0 0 -15.15z"></path>
    <path fill="#fff" d="M333.33 217.97l0 -217.97 -303.03 0 0 363.64 154.38 0c47.93,0 148.65,-109.44 148.65,-145.67zm-272.73 115.36l0 -303.03 242.43 0.01 0 174.89c0,62.22 -90.91,37.23 -90.91,37.23 0,0 23,90.91 -39.97,90.91l-111.55 -0.01z"></path>
</svg>