<!DOCTYPE svg PUBLIC "-//W3C//DTD SVG 1.1//EN" "http://www.w3.org/Graphics/SVG/1.1/DTD/svg11.dtd">
<svg xmlns="http://www.w3.org/2000/svg" xml:space="preserve" width="244" height="244" fill-rule="evenodd" clip-rule="evenodd" image-rendering="optimizeQuality" shape-rendering="geometricPrecision" text-rendering="geometricPrecision" viewBox="0 0 89.17 89.17">
      <path fill="#fff" d="M44.57 7.68a10.64 10.64 0 0 0-10.65 10.65v22.92c0 1.79-.79 3.49-2.14 4.65-4.28 3.63-6.99 9.02-6.99 15.07 0 10.94 8.86 19.8 19.8 19.8 10.93 0 19.79-8.86 19.79-19.8 0-6.05-2.72-11.44-6.98-15.07a6.084 6.084 0 0 1-2.15-4.65V18.33c0-5.89-4.76-10.65-10.65-10.65h-.03zm0 6.09c2.52 0 4.57 2.05 4.57 4.57v22.93c0 4.77 1.57 6.95 4.3 9.28 3.08 2.61 4.84 6.42 4.84 10.44 0 7.55-6.14 13.7-13.71 13.7-7.55 0-13.7-6.14-13.7-13.7 0-4.02 1.76-7.83 4.84-10.44 2.73-2.31 4.3-4.51 4.3-9.28V18.34c0-2.51 2.04-4.57 4.57-4.57h-.01z"/>
      <path fill="#f8651b" d="M50.99 52.5c-3.08-2.71-4.89-5.29-4.89-9.81V17.54h-3.04v25.15c0 4.52-1.83 7.11-4.89 9.81-2.42 2.13-4.24 5-4.24 8.47 0 5.89 4.77 10.66 10.65 10.66 5.89 0 10.66-4.77 10.66-10.66 0-3.47-1.82-6.34-4.24-8.47h-.01zM85.79 28.86H74.85V39.8h-4.37V28.86H59.54V24.5h10.94V13.56h4.37V24.5h10.94z"/>
</svg>
