<!DOCTYPE svg PUBLIC "-//W3C//DTD SVG 1.1//EN" "http://www.w3.org/Graphics/SVG/1.1/DTD/svg11.dtd">
<svg xmlns="http://www.w3.org/2000/svg" xml:space="preserve" width="103" height="132" fill-rule="evenodd" clip-rule="evenodd" image-rendering="optimizeQuality" shape-rendering="geometricPrecision" text-rendering="geometricPrecision" viewBox="0 0 10.5 13.49">
  <path fill="#fff" d="M1.84 4.23c-3.34 2.72-1.93 8.63 2.63 9.21 1.63.2 3.07-.17 4.14-.9-2.26-.35-3.76-1.05-4.77-1.93-1.57-1.37-2.94-4.34-2-6.38z"/>
  <path fill="#fa6831" d="M9.5 6.15C8.18 4.43 4.97 3.39 6.72 0 2.35 1.06 1.23 7.93 4.91 10.4c1.26-.78.67-2.41.59-2.9-.09-.56-.07-1.03.13-1.55.91 1.83 2.17 1.75 2.19 3.22.04.87-.44 1.68-1.23 2.05.78.27 1.71.48 2.83.61 1.29-1.42 1.55-3.57.08-5.68z"/>
</svg>
