<?xml version="1.0" encoding="UTF-8" standalone="no"?>
<!-- Creator: CorelDRAW 2017 -->

<svg
   xml:space="preserve"
   width="2991"
   height="500"
   version="1.1"
   style="clip-rule:evenodd;fill-rule:evenodd;image-rendering:optimizeQuality;shape-rendering:geometricPrecision;text-rendering:geometricPrecision"
   viewBox="0 0 3628.41 606.917"
   id="svg331"
   sodipodi:docname="logo_prusa_pro_ht90.svg"
   inkscape:version="1.2.2 (b0a8486541, 2022-12-01)"
   xmlns:inkscape="http://www.inkscape.org/namespaces/inkscape"
   xmlns:sodipodi="http://sodipodi.sourceforge.net/DTD/sodipodi-0.dtd"
   xmlns="http://www.w3.org/2000/svg"
   xmlns:svg="http://www.w3.org/2000/svg"><sodipodi:namedview
   id="namedview333"
   pagecolor="#ffffff"
   bordercolor="#000000"
   borderopacity="0.25"
   inkscape:showpageshadow="2"
   inkscape:pageopacity="0.0"
   inkscape:pagecheckerboard="0"
   inkscape:deskcolor="#d1d1d1"
   showgrid="false"
   inkscape:zoom="0.3208104"
   inkscape:cx="1061.3746"
   inkscape:cy="240.01716"
   inkscape:window-width="1920"
   inkscape:window-height="995"
   inkscape:window-x="0"
   inkscape:window-y="794"
   inkscape:window-maximized="1"
   inkscape:current-layer="Layer_x0020_1_0" />
 <defs
   id="defs321">
  <style
   type="text/css"
   id="style319">
   <![CDATA[
    .fil0 {fill:#FEFEFE;fill-rule:nonzero}
    .fil1 {fill:#F8651B;fill-rule:nonzero}
   ]]>
  </style>
 </defs>
 <g
   id="Layer_x0020_1_0"
   inkscape:label="Layer 1_0"
   inkscape:groupmode="layer">
  <metadata
   id="CorelCorpID_0Corel-Layer" />
  <path
   class="fil0"
   d="m 64.47,144.88 h 50.16 c 7.33,0 14.43,-0.58 21.29,-1.63 6.87,-1.04 12.8,-3.25 18.04,-6.4 5.24,-3.14 9.43,-7.56 12.57,-13.26 3.14,-5.71 4.77,-13.27 4.77,-22.58 0,-9.31 -1.63,-16.87 -4.77,-22.57 -3.14,-5.71 -7.33,-10.24 -12.57,-13.39 -5.24,-3.14 -11.17,-5.23 -18.04,-6.28 -6.86,-1.05 -13.96,-1.63 -21.29,-1.63 H 64.47 Z M 0,6.98 h 132.2 c 18.39,0 33.98,2.68 46.89,8.03 12.81,5.36 23.28,12.46 31.31,21.18 8.03,8.73 13.96,18.85 17.69,30.14 3.72,11.29 5.58,22.93 5.58,34.68 0,11.99 -1.86,23.62 -5.58,34.91 -3.73,11.29 -9.66,21.18 -17.69,29.91 -8.03,8.73 -18.5,15.83 -31.31,21.18 -12.91,5.35 -28.5,8.03 -46.89,8.03 H 64.47 V 300.12 H 0 Z m 330.08,132.67 h 70.64 c 14.54,0 25.48,-3.26 33.04,-9.9 7.57,-6.63 11.29,-17.22 11.29,-32 0,-14.31 -3.72,-24.67 -11.29,-31.07 -7.56,-6.4 -18.5,-9.54 -33.04,-9.54 H 330.08 Z M 265.61,6.98 h 158.15 c 13.15,0 24.9,2.1 35.49,6.4 10.59,4.31 19.55,10.13 27.11,17.46 7.57,7.33 13.27,15.94 17.23,25.83 3.95,9.89 5.93,20.25 5.93,31.19 0,17.22 -3.6,32.12 -10.82,44.69 -7.33,12.68 -19.2,22.22 -35.61,28.86 v 0.81 c 8.03,2.21 14.55,5.47 19.78,10.01 5.24,4.54 9.43,9.89 12.69,16.17 3.26,6.41 5.7,13.16 7.21,20.37 1.52,7.33 2.45,14.66 3.03,21.99 0.35,4.66 0.58,10.13 0.93,16.41 0.23,6.29 0.7,12.69 1.4,19.09 0.58,6.4 1.74,12.68 3.26,18.62 1.51,6.05 3.72,11.17 6.75,15.24 h -64.47 c -1.98,-4.65 -3.38,-9.77 -4.31,-15.48 -0.93,-5.58 -1.75,-11.4 -2.44,-17.57 -0.7,-6.17 -1.28,-12.45 -1.63,-18.85 -0.35,-6.4 -1.05,-12.57 -1.86,-18.27 -2.22,-15.36 -6.87,-26.65 -13.97,-33.75 -7.1,-7.1 -18.74,-10.59 -34.91,-10.59 H 330.08 V 300.12 H 265.61 Z M 802.6,189.22 c 0,39.68 -11.06,69.24 -33.17,88.67 -22.23,19.44 -52.83,29.21 -92.05,29.21 -39.68,0 -70.29,-9.66 -92.05,-28.97 -21.76,-19.2 -32.7,-48.88 -32.7,-88.91 V 6.98 h 64.47 v 182.24 c 0,8.03 0.7,15.83 2.09,23.39 1.28,7.68 4.19,14.55 8.62,20.6 4.3,6.05 10.47,10.82 18.27,14.31 7.79,3.61 18.15,5.35 31.3,5.35 23.04,0 38.98,-5.12 47.71,-15.36 8.73,-10.24 13.04,-26.3 13.04,-48.29 V 6.98 h 64.47 z m 91.17,13.62 c 0,9.89 1.74,18.15 5.35,25.01 3.6,6.87 8.26,12.34 14.2,16.65 5.81,4.3 12.68,7.44 20.48,9.42 7.79,2.1 16.06,3.14 24.78,3.14 5.71,0 11.87,-0.46 18.51,-1.51 6.63,-0.93 12.8,-2.79 18.5,-5.58 5.7,-2.68 10.59,-6.52 14.43,-11.29 3.84,-4.77 5.7,-10.83 5.7,-18.16 0,-8.03 -2.56,-14.43 -7.56,-19.43 -5.12,-4.89 -11.76,-9.08 -20.02,-12.45 -8.26,-3.38 -17.57,-6.29 -27.93,-8.61 -10.35,-2.33 -20.95,-5.01 -31.53,-8.03 -10.94,-2.68 -21.65,-6.05 -32.01,-10.01 -10.35,-3.96 -19.66,-9.08 -27.92,-15.48 -8.27,-6.28 -14.9,-14.08 -19.9,-23.39 -5.12,-9.19 -7.68,-20.71 -7.68,-34.45 0,-15.01 3.25,-28.16 9.66,-39.21 6.39,-11.06 14.89,-20.37 25.25,-27.7 C 886.43,14.43 898.3,8.96 911.45,5.35 924.6,1.75 937.64,0 950.79,0 c 15.36,0 30.14,1.75 44.22,5.12 14.08,3.38 26.53,8.96 37.47,16.64 10.94,7.68 19.67,17.46 26.07,29.33 6.4,11.98 9.66,26.41 9.66,43.4 h -62.38 c -0.58,-8.72 -2.33,-16.05 -5.47,-21.76 -3.14,-5.7 -7.33,-10.24 -12.57,-13.61 -5.23,-3.26 -11.17,-5.59 -18.04,-6.99 -6.86,-1.27 -14.19,-1.97 -21.76,-1.97 -5.23,0 -10.35,0.58 -15.59,1.63 -5.24,1.04 -10.01,3.02 -14.2,5.7 -4.3,2.67 -7.79,6.17 -10.47,10.47 -2.68,4.31 -4.07,9.43 -4.07,15.36 0,5.71 1.04,10.36 3.26,13.97 2.21,3.6 6.51,6.75 12.91,9.66 6.4,2.91 15.36,5.82 26.77,8.95 11.28,3.15 26.18,7.1 44.45,11.76 3.61,0.81 8.26,1.98 13.97,3.49 5.7,1.51 11.86,3.61 18.27,6.17 6.39,2.68 12.91,6.05 19.31,10.12 6.4,4.08 12.34,9.2 17.69,15.13 5.24,6.05 9.54,13.27 12.92,21.53 3.26,8.38 4.89,18.04 4.89,28.98 0,13.38 -2.57,25.83 -7.8,37.35 -5.24,11.52 -12.92,21.41 -23.16,29.68 -10.36,8.38 -23.04,15.01 -38.17,19.78 -15.24,4.77 -32.81,7.21 -52.83,7.21 -16.18,0 -31.77,-2.09 -47.01,-6.16 -15.25,-4.08 -28.52,-10.48 -40.04,-18.97 -11.52,-8.5 -20.71,-19.2 -27.69,-32.35 -6.98,-13.15 -10.36,-28.75 -10.01,-46.78 z m 288.18,-16.06 h 75.99 L 1221.05,79.25 h -0.81 z m 6.17,-179.8 h 66.1 l 109.62,293.14 h -66.92 l -22.11,-65.28 h -109.62 l -23.04,65.28 h -65.28 z"
   id="path324" />
  <path
   class="fil1"
   d="m 1496.07,149.24 h 95.26 c 19.28,0 34.98,-4.85 46.88,-14.66 11.89,-9.81 17.89,-24.71 17.89,-44.8 0,-20.09 -6,-34.98 -17.89,-44.8 -11.9,-9.81 -27.6,-14.66 -46.88,-14.66 h -95.26 z M 1468.36,6.65 h 129.09 c 13.05,0 24.94,1.85 35.56,5.43 10.51,3.69 19.63,9.12 27.25,16.28 7.5,7.27 13.39,16.05 17.43,26.32 4.04,10.28 6.12,22.05 6.12,35.1 0,13.05 -2.08,24.71 -6.12,34.99 -4.04,10.27 -9.93,19.05 -17.43,26.2 -7.62,7.28 -16.74,12.71 -27.25,16.28 -10.62,3.7 -22.51,5.55 -35.56,5.55 h -101.38 v 124.69 h -27.71 z m 276.24,138.09 h 103.45 c 8.43,0 16.39,-1.27 24.01,-3.92 7.62,-2.55 14.32,-6.24 19.98,-11.2 5.66,-4.85 10.27,-10.74 13.62,-17.67 3.35,-6.93 5.08,-14.89 5.08,-23.78 0,-17.9 -5.19,-32.1 -15.58,-42.38 -10.51,-10.27 -26.21,-15.47 -47.11,-15.47 H 1744.6 Z M 1716.88,6.65 h 133.25 c 11.89,0 23.32,1.5 34.06,4.5 10.74,3.01 20.09,7.51 28.05,13.63 7.97,6.12 14.44,14.08 19.17,23.67 4.73,9.58 7.04,20.9 7.04,33.94 0,18.48 -4.73,34.53 -14.2,48.03 -9.58,13.63 -23.67,22.29 -42.37,26.1 v 0.81 c 9.47,1.38 17.32,3.92 23.67,7.5 6.23,3.7 11.31,8.43 15.24,14.09 3.92,5.65 6.81,12.24 8.54,19.74 1.73,7.5 2.89,15.59 3.47,24.25 0.23,4.96 0.46,10.85 0.8,17.89 0.24,7.05 0.81,14.21 1.62,21.36 0.81,7.28 2.08,14.09 3.81,20.44 1.73,6.35 4.16,11.32 7.16,14.89 h -30.48 c -1.73,-2.65 -3,-6 -3.93,-10.04 -0.92,-3.93 -1.62,-7.97 -2.19,-12.24 -0.58,-4.16 -0.93,-8.31 -1.04,-12.35 -0.12,-4.04 -0.35,-7.62 -0.58,-10.63 -0.58,-10.04 -1.5,-20.2 -2.65,-30.48 -1.27,-10.27 -3.81,-19.51 -7.74,-27.48 -4.04,-7.96 -9.7,-14.43 -17.2,-19.39 -7.51,-4.85 -17.67,-7.05 -30.72,-6.47 H 1744.6 v 129.08 h -27.72 z m 275.78,145.48 c 0,16.05 2.08,31.64 6.35,46.76 4.15,15.24 10.62,28.87 19.51,40.99 8.89,12.12 20.21,21.82 34.06,29.1 13.74,7.27 30.37,10.96 49.65,10.96 19.05,0 35.45,-3.69 49.3,-10.96 13.86,-7.28 25.17,-16.98 34.06,-29.1 8.78,-12.12 15.24,-25.75 19.51,-40.99 4.16,-15.12 6.24,-30.71 6.24,-46.76 0,-15.82 -2.08,-31.4 -6.24,-46.76 -4.27,-15.36 -10.73,-28.98 -19.51,-41.11 -8.89,-12.12 -20.2,-21.82 -34.06,-29.09 -13.85,-7.27 -30.25,-10.97 -49.3,-10.97 -19.28,0 -35.91,3.7 -49.65,10.97 -13.85,7.27 -25.17,16.97 -34.06,29.09 -8.89,12.13 -15.36,25.75 -19.51,41.11 -4.27,15.36 -6.35,30.94 -6.35,46.76 z m -27.71,0 c 0,-19.86 2.88,-38.91 8.54,-57.27 5.66,-18.36 14.2,-34.52 25.63,-48.49 11.43,-13.97 25.75,-25.17 42.96,-33.49 17.2,-8.19 37.29,-12.35 60.15,-12.35 22.74,0 42.72,4.16 59.92,12.35 17.09,8.32 31.29,19.52 42.72,33.49 11.43,13.97 19.98,30.13 25.64,48.49 5.65,18.36 8.54,37.41 8.54,57.27 0,19.74 -2.89,38.8 -8.54,57.15 -5.66,18.36 -14.21,34.53 -25.64,48.5 -11.43,13.97 -25.63,25.17 -42.72,33.36 -17.2,8.32 -37.18,12.47 -59.92,12.47 -22.86,0 -42.95,-4.15 -60.15,-12.47 -17.21,-8.19 -31.53,-19.39 -42.96,-33.36 -11.43,-13.97 -19.97,-30.14 -25.63,-48.5 -5.66,-18.35 -8.54,-37.41 -8.54,-57.15 z"
   id="path326" />
  <path
   class="fil0"
   d="m 2677.85,6.96 h 64.52 v 112.61 h 118.79 V 6.96 h 64.51 v 293.35 h -64.51 V 173.72 h -118.79 v 126.59 h -64.52 z m 361.19,54.27 h -87.93 V 6.96 h 240.37 v 54.27 h -87.92 v 239.08 h -64.52 z m 260.45,100.62 c 7.57,0 14.32,-1.4 20.26,-4.32 5.94,-2.91 10.83,-6.75 14.68,-11.76 3.84,-4.89 6.63,-10.59 8.61,-17 1.87,-6.4 2.8,-13.16 2.8,-20.26 0,-6.64 -1.05,-13.16 -3.03,-19.57 -2.1,-6.4 -5.12,-12.23 -9.08,-17.23 -3.96,-5.01 -8.85,-9.09 -14.56,-12.12 -5.71,-3.02 -12.35,-4.54 -19.68,-4.54 -7.11,0 -13.39,1.52 -18.75,4.54 -5.36,3.03 -9.9,6.99 -13.74,11.89 -3.85,5 -6.76,10.59 -8.62,16.88 -1.98,6.29 -2.91,12.7 -2.91,19.22 0,6.87 0.93,13.51 2.68,19.91 1.74,6.41 4.42,12.23 8.03,17.24 3.61,5.12 8.15,9.2 13.75,12.34 5.58,3.15 12.11,4.78 19.56,4.78 z m -41.93,64.51 c 1.87,9.55 6.29,17.94 13.16,25.04 6.88,7.1 15.26,10.71 25.39,10.71 10.71,0 19.45,-3.14 26.32,-9.31 6.87,-6.18 12.34,-13.63 16.42,-22.6 4.08,-8.85 7.1,-18.4 8.85,-28.53 1.75,-10.13 2.91,-19.1 3.5,-27.13 l -0.82,-0.82 c -7.92,11.53 -17.23,19.8 -27.95,24.69 -10.71,5.01 -23.06,7.46 -36.92,7.46 -12.34,0 -24.45,-2.68 -36.22,-8.04 -11.76,-5.36 -21.77,-12.58 -29.92,-21.55 -7.69,-8.73 -13.28,-18.75 -16.89,-30.04 -3.61,-11.3 -5.36,-22.59 -5.36,-34.12 0,-14.79 2.45,-28.54 7.22,-41.23 4.78,-12.69 11.65,-23.87 20.62,-33.3 8.85,-9.44 19.44,-17.01 31.79,-22.48 12.23,-5.47 25.97,-8.15 40.99,-8.15 21.66,0 39.6,4.31 53.92,12.92 14.21,8.62 25.62,20.03 34.12,34.13 8.5,14.09 14.33,30.04 17.59,47.86 3.26,17.82 4.89,35.75 4.89,53.8 0,17.59 -1.98,35.29 -6.06,53.22 -4.07,17.94 -10.71,34.13 -19.68,48.45 -9.08,14.44 -20.73,26.2 -34.93,35.17 -14.33,8.97 -31.68,13.51 -52.29,13.51 -24.93,0 -45.89,-6.87 -62.77,-20.73 -17.01,-13.86 -27.14,-33.42 -30.52,-58.93 z m 218.06,-71.04 c 0,8.27 0.24,18.17 0.82,29.7 0.58,11.64 2.21,22.83 5.12,33.66 2.91,10.82 7.46,20.14 13.86,27.83 6.29,7.68 15.26,11.53 27.02,11.53 11.76,0 20.96,-3.85 27.6,-11.53 6.52,-7.69 11.18,-17.01 14.09,-27.83 2.91,-10.83 4.54,-22.02 5.13,-33.66 0.58,-11.53 0.81,-21.43 0.81,-29.7 0,-5 0,-10.94 -0.12,-17.93 -0.11,-6.99 -0.69,-14.21 -1.63,-21.55 -1.05,-7.33 -2.44,-14.67 -4.19,-22.01 -1.75,-7.22 -4.42,-13.74 -7.92,-19.44 -3.61,-5.71 -8.03,-10.37 -13.51,-13.98 -5.47,-3.61 -12.23,-5.36 -20.26,-5.36 -7.69,0 -14.21,1.75 -19.68,5.36 -5.47,3.61 -10.02,8.27 -13.39,13.98 -3.38,5.7 -6.06,12.22 -7.92,19.44 -1.98,7.34 -3.26,14.68 -4.08,22.01 -0.81,7.34 -1.4,14.56 -1.51,21.55 -0.12,6.99 -0.24,12.93 -0.24,17.93 z m -58.34,0 c 0,-27.95 2.79,-51.47 8.5,-70.57 5.59,-18.98 13.16,-34.24 22.83,-45.77 9.55,-11.53 20.72,-19.68 33.42,-24.68 12.69,-4.9 26.2,-7.34 40.41,-7.34 14.32,0 27.83,2.44 40.76,7.34 12.81,5 24.1,13.15 33.89,24.68 9.66,11.53 17.35,26.79 22.94,45.77 5.59,19.1 8.38,42.62 8.38,70.57 0,28.77 -2.79,52.64 -8.38,71.86 -5.59,19.21 -13.28,34.58 -22.94,46.35 -9.79,11.76 -21.08,20.14 -33.89,25.03 -12.93,5.01 -26.44,7.46 -40.76,7.46 -14.21,0 -27.72,-2.45 -40.41,-7.46 -12.7,-4.89 -23.87,-13.27 -33.42,-25.03 -9.67,-11.77 -17.24,-27.14 -22.83,-46.35 -5.71,-19.22 -8.5,-43.09 -8.5,-71.86 z"
   id="path328" />
 </g>
</svg>
