<?xml version="1.0" encoding="UTF-8" standalone="no"?>
<!-- Uploaded to: SVG Repo, www.svgrepo.com, Generator: SVG Repo Mixer Tools -->

<svg
   width="800"
   height="800"
   viewBox="0 0 16 16"
   fill="none"
   version="1.1"
   id="svg6"
   sodipodi:docname="logs.svg"
   inkscape:version="1.2.2 (b0a8486541, 2022-12-01)"
   xml:space="preserve"
   xmlns:inkscape="http://www.inkscape.org/namespaces/inkscape"
   xmlns:sodipodi="http://sodipodi.sourceforge.net/DTD/sodipodi-0.dtd"
   xmlns="http://www.w3.org/2000/svg"
   xmlns:svg="http://www.w3.org/2000/svg"><defs
     id="defs10" /><sodipodi:namedview
     id="namedview8"
     pagecolor="#000000"
     bordercolor="#000000"
     borderopacity="0.25"
     inkscape:showpageshadow="2"
     inkscape:pageopacity="0"
     inkscape:pagecheckerboard="0"
     inkscape:deskcolor="#d1d1d1"
     showgrid="false"
     inkscape:zoom="0.37123106"
     inkscape:cx="1008.8057"
     inkscape:cy="484.87322"
     inkscape:window-width="1920"
     inkscape:window-height="1019"
     inkscape:window-x="0"
     inkscape:window-y="542"
     inkscape:window-maximized="1"
     inkscape:current-layer="svg6" /><path
     style="fill:#fa6831;fill-opacity:1;stroke-width:0.861263"
     d="m 2.6459472,11.765835 a 0.64594722,0.64594722 0 0 0 0,1.291894 h 5.5982092 a 0.64594722,0.64594722 0 0 0 0,-1.291894 z"
     id="path3979" /><path
     style="fill:#fa6831;fill-opacity:1;stroke-width:0.861263"
     d="M 2,9.8279933 A 0.64594722,0.64594722 0 0 1 2.6459472,9.1820461 h 9.0432608 a 0.64594745,0.64594745 0 0 1 0,1.2918949 H 2.6459472 A 0.64594722,0.64594722 0 0 1 2,9.8279933 Z"
     id="path3977" /><path
     style="fill:#fa6831;fill-opacity:1;stroke-width:0.861263"
     d="m 2.6459472,6.5982573 a 0.64594722,0.64594722 0 0 0 0,1.2918944 h 9.0432608 a 0.64594722,0.64594722 0 0 0 0,-1.2918944 z"
     id="path3975" /><path
     style="fill:#ffffff;fill-opacity:1;stroke-width:0.861263"
     d="m 6.4665097,1.2205313 a 0.64594722,0.64594722 0 0 0 0.060288,0.9112163 L 7.6938094,3.1532054 6.5267981,4.1746633 A 0.64594722,0.64594722 0 1 0 7.3777259,5.1461679 L 9.1002518,3.6389577 a 0.64594722,0.64594722 0 0 0 0,-0.9715046 L 7.3777259,1.1602429 a 0.64594722,0.64594722 0 0 0 -0.9112162,0.060288 z"
     id="path3973" /><path
     style="fill:#ffffff;fill-opacity:1;stroke-width:0.861263"
     d="M 4.8542254,1.2205313 A 0.64594722,0.64594722 0 0 1 4.793937,2.1317476 L 3.6269257,3.1532054 4.793937,4.1746633 A 0.64594722,0.64594722 0 1 1 3.9430092,5.1461679 L 2.2204833,3.6389577 a 0.64594722,0.64594722 0 0 1 0,-0.9715046 L 3.9430092,1.1602429 a 0.64594722,0.64594722 0 0 1 0.9112162,0.060288 z"
     id="path2" /><path
     d="m 10.479823,8.5190042 h 1.330703 v 4.0798628 l 1.164366,-1.164364 0.805075,0.805074 -2.634791,2.634791 -2.6347938,-2.634791 0.8050749,-0.805074 1.1643659,1.164364 z"
     id="path2-3"
     style="fill:#ffffff;fill-opacity:1;stroke:#000000;stroke-width:0.332675"
     sodipodi:nodetypes="cccccccccc" /></svg>
