<svg xmlns="http://www.w3.org/2000/svg" width="19.671" height="19.671" viewBox="0 0 19.671 19.671">
  <path fill="#fff" d="M25.107,23.194c.006.673.084,1.074-.308,1.432s-.792.245-1.453.182l-.526,1.127c.478.473.819.7.8,1.232s-.38.726-.9,1.154l.427,1.172c.667-.006,1.074-.084,1.432.308s.245.79.182,1.453l1.127.526c.473-.478.7-.819,1.229-.8s.732.383,1.16.9l1.17-.425c-.006-.673-.084-1.074.308-1.432s.79-.245,1.453-.182l.526-1.127c-.469-.461-.819-.7-.8-1.232s.385-.729.9-1.154l-.427-1.172c-.67.006-1.074.084-1.432-.3s-.245-.79-.182-1.453l-1.127-.526c-.473.478-.7.819-1.232.8s-.729-.383-1.154-.9l-1.17.427,0-.007Zm-.137-3.223a7.739,7.739,0,1,1-4.013,2.96l1.7,1.313V19.171L18.02,20.663l1.713,1.325a9.223,9.223,0,1,0,5.233-3.615v1.6l0-.007ZM27.275,25.2a2.129,2.129,0,1,1-2.129,2.129A2.13,2.13,0,0,1,27.275,25.2Z" transform="translate(-17.438 -17.489)" fill-rule="evenodd"/>
  <path  fill="#fa6831" d="M11.75,29.842,29.872,11.72l1.548,1.548L13.3,31.391Z" transform="translate(-11.75 -11.72)" fill-rule="evenodd"/>
</svg>
