<svg xmlns="http://www.w3.org/2000/svg" width="24" height="24" fill-rule="evenodd" clip-rule="evenodd" image-rendering="optimizeQuality" shape-rendering="geometricPrecision" text-rendering="geometricPrecision" viewBox="0 0 363.64 363.64">
    <path fill="#fff" d="M227.18 272.69l-90.96 0 0 90.96 90.96 0 0 -90.96zm-136.22 0l-90.96 0 0 90.96 90.96 0 0 -90.96zm-30.4 30.4l0 30.4 -30.4 0 0 -30.4 30.4 0zm303.09 -30.4l-90.96 0 0 90.96 90.96 0 0 -90.96zm-30.4 30.4l0 30.4 -30.4 0 0 -30.4 30.4 0zm-136.22 -136.46l0 -45.51 -30.4 0 0 45.51 -136.22 0 0 75.67 30.16 0 0 -45.27 106.07 0 0 45.27 30.4 0 0 -45.27 106.07 0 0 45.27 30.16 0 0 -75.67 -136.22 0zm-0.23 136.46l0 30.4 -30.4 0 0 -30.4 30.4 0z"></path>
    <path fill="#fa6831" d="M242.29 0l-121.17 0 0 90.96 121.17 0 0 -90.96zm-30.4 30.4l0 30.4 -60.56 0 0 -30.4 60.56 0z"></path>
</svg>