<?xml version="1.0" encoding="UTF-8" standalone="no"?>
<svg
   width="600"
   height="450"
   fill-rule="evenodd"
   clip-rule="evenodd"
   image-rendering="optimizeQuality"
   shape-rendering="geometricPrecision"
   text-rendering="geometricPrecision"
   viewBox="0 0 9091 6818.25"
   version="1.1"
   id="svg2"
   sodipodi:docname="network_check_error.svg"
   inkscape:version="1.3.2 (091e20e, 2023-11-25, custom)"
   xmlns:inkscape="http://www.inkscape.org/namespaces/inkscape"
   xmlns:sodipodi="http://sodipodi.sourceforge.net/DTD/sodipodi-0.dtd"
   xmlns="http://www.w3.org/2000/svg"
   xmlns:svg="http://www.w3.org/2000/svg"
   xmlns:rdf="http://www.w3.org/1999/02/22-rdf-syntax-ns#"
   xmlns:cc="http://creativecommons.org/ns#"
   xmlns:dc="http://purl.org/dc/elements/1.1/">
  <title
     id="title1">Settings</title>
  <defs
     id="defs2" />
  <sodipodi:namedview
     id="namedview2"
     pagecolor="#505050"
     bordercolor="#eeeeee"
     borderopacity="1"
     inkscape:showpageshadow="0"
     inkscape:pageopacity="0"
     inkscape:pagecheckerboard="0"
     inkscape:deskcolor="#505050"
     inkscape:zoom="1.0790744"
     inkscape:cx="329.91238"
     inkscape:cy="227.04644"
     inkscape:window-width="1440"
     inkscape:window-height="829"
     inkscape:window-x="-8"
     inkscape:window-y="-8"
     inkscape:window-maximized="1"
     inkscape:current-layer="svg2" />
  <path
     fill="#ffffff"
     d="M 5140.5573,4730.3959 H 3749.6638 V 6121.289 h 1390.8935 z m -2082.9766,0 H 1666.6833 V 6121.289 h 1390.8974 z m -464.8572,464.8487 v 464.8486 h -464.8551 v -464.8486 z m 2086.8017,-2086.647 v -695.9084 h -464.8566 v 695.9084 h -2082.978 v 1157.0935 h 461.1857 v -692.2369 h 1621.945 v 692.2369 h 464.8583 v -692.2369 h 1621.9406 v 692.2369 H 6762.81 V 3108.5976 H 4679.8344 Z m -3.5156,2086.647 v 464.8486 h -464.8583 v -464.8486 z"
     id="path1"
     style="stroke-width:15.2918"
     sodipodi:nodetypes="cccccccccccccccccccccccccccccccccccccc" />
  <path
     fill="#fa6831"
     d="M 5371.6077,560.61167 H 3518.7602 V 1951.5097 H 5371.6077 Z M 4906.7483,1025.467 v 464.8556 H 3980.7126 V 1025.467 Z"
     id="path2"
     style="stroke-width:15.2918" />
  <metadata
     id="metadata1">
    <rdf:RDF>
      <cc:Work
         rdf:about="">
        <dc:title>Settings</dc:title>
      </cc:Work>
    </rdf:RDF>
  </metadata>
  <path
     style="fill:#ffffff;stroke:#fa6831;stroke-width:107.358;stroke-linejoin:miter;stroke-dasharray:none;stroke-opacity:1"
     d="m 6511.2996,5095.7358 629.6324,-609.3982 309.6297,279.8257 -627.5199,603.1799 661.5915,571.0214 -299.9897,291.885 -649.4671,-567.0013 -635.7868,609.9529 -320.0177,-277.8046 625.4776,-626.2321 -644.0032,-612.2864 283.7808,-278.0044 z"
     id="path3"
     sodipodi:nodetypes="ccccccccccccc" />
</svg>
