<svg xmlns="http://www.w3.org/2000/svg" width="24" height="24" fill-rule="evenodd" clip-rule="evenodd" image-rendering="optimizeQuality" shape-rendering="geometricPrecision" text-rendering="geometricPrecision" viewBox="0 0 235.3 235.3">
    <path fill="#fa6831" d="M132.18 115.91c0,51.04 7.82,42.55 -80.26,42.55l0 8.97 146.02 0c8.15,0 14.76,6.61 14.76,14.79l0 38.32c0,8.15 -6.61,14.76 -14.79,14.76l-160.5 0c-19.03,-0.21 -19.02,-29.37 0,-29.58l145.98 0 0 -8.98 -146.02 0c-8.15,0 -14.76,-6.61 -14.76,-14.79l0 -38.3c0,-8.15 6.61,-14.76 14.79,-14.76l65.47 0 0 -12.97 29.32 0z"></path>
    <path fill="#fff" d="M184.19 0L184.19 54.4 136.94 115.91 97.86 115.91 50.61 54.4 50.61 0 80.18 0 80.18 44.36 112.12 86.33 122.44 86.33 154.66 44.36 154.66 0z"></path>
</svg>