<?xml version="1.0" encoding="UTF-8" standalone="no"?>
<!-- Generator: Adobe Illustrator 28.0.0, SVG Export Plug-In . SVG Version: 6.00 Build 0)  -->

<svg
   version="1.0"
   id="Layer_1"
   x="0px"
   y="0px"
   viewBox="0 0 800 160"
   xml:space="preserve"
   sodipodi:docname="PrusaPRO_HT90_bile.svg"
   width="800"
   height="160"
   inkscape:version="1.2.2 (b0a8486541, 2022-12-01)"
   xmlns:inkscape="http://www.inkscape.org/namespaces/inkscape"
   xmlns:sodipodi="http://sodipodi.sourceforge.net/DTD/sodipodi-0.dtd"
   xmlns="http://www.w3.org/2000/svg"
   xmlns:svg="http://www.w3.org/2000/svg"><defs
   id="defs7499" /><sodipodi:namedview
   id="namedview7497"
   pagecolor="#ffffff"
   bordercolor="#000000"
   borderopacity="0.25"
   inkscape:showpageshadow="2"
   inkscape:pageopacity="0.0"
   inkscape:pagecheckerboard="0"
   inkscape:deskcolor="#d1d1d1"
   showgrid="false"
   inkscape:zoom="1.1994299"
   inkscape:cx="418.94904"
   inkscape:cy="50.857496"
   inkscape:window-width="1920"
   inkscape:window-height="995"
   inkscape:window-x="0"
   inkscape:window-y="794"
   inkscape:window-maximized="1"
   inkscape:current-layer="Layer_1" />
<style
   type="text/css"
   id="style7450">
	.st0{fill:#FFFFFF;}
	.st1{fill:#36B77A;}
</style>
<g
   id="g7494">
	<g
   id="g7476">
		<g
   id="g7466">
			<g
   id="g7464">
				<g
   id="g7462">
					<path
   class="st0"
   d="m 0,4.6557722 h 31.740221 c 4.402143,0 8.149073,0.6404018 11.237486,1.9228516 3.088417,1.2808037 5.602283,2.974823 7.541595,5.0771192 1.937668,2.103942 3.351822,4.519029 4.239163,7.245264 0.887344,2.727882 1.330192,5.503506 1.330192,8.328516 0,2.892509 -0.442848,5.686241 -1.330192,8.379551 -0.887341,2.694954 -2.301495,5.093582 -4.239163,7.195877 -1.939312,2.103943 -4.453178,3.794666 -7.541595,5.077118 -3.088413,1.280803 -6.835343,1.921203 -11.237486,1.921203 H 15.475004 V 75.039055 H 0 Z M 15.475004,37.777218 h 12.027701 c 1.773038,0 3.481874,-0.130055 5.124858,-0.393459 1.642987,-0.261757 3.088418,-0.772103 4.337941,-1.527745 1.247879,-0.755642 2.250461,-1.824074 3.006103,-3.203655 0.755638,-1.381226 1.134285,-3.187193 1.134285,-5.422836 0,-2.232352 -0.378647,-4.041611 -1.134285,-5.421191 -0.755642,-1.379579 -1.758224,-2.448013 -3.006103,-3.203655 -1.249524,-0.753994 -2.694954,-1.264341 -4.337941,-1.527744 -1.642984,-0.261759 -3.35182,-0.395107 -5.124858,-0.395107 H 15.475004 Z"
   id="path7452" />
					<path
   class="st0"
   d="m 63.778419,4.6557722 h 37.951621 c 3.15427,0 5.99574,0.5103459 8.52607,1.5277452 2.52868,1.0206919 4.69847,2.4150887 6.50609,4.1897746 1.80761,1.774687 3.18719,3.844057 4.14039,6.211404 0.95154,2.365699 1.42896,4.863102 1.42896,7.49056 0,4.140387 -0.87088,7.722685 -2.61264,10.745251 -1.74176,3.024212 -4.58324,5.322414 -8.52607,6.899547 v 0.197552 c 1.90475,0.52681 3.48188,1.331837 4.7314,2.415089 1.24788,1.084896 2.26693,2.383808 3.0555,3.893444 0.78856,1.512928 1.36311,3.13945 1.72529,4.879566 0.36054,1.743408 0.60748,3.499985 0.73918,5.27467 0.0658,1.117824 0.1317,2.431553 0.19755,3.942837 0.0642,1.512928 0.18109,3.040672 0.34572,4.583236 0.16298,1.545853 0.42638,3.040673 0.78857,4.486099 0.36053,1.445435 0.90216,2.660386 1.62652,3.646508 h -15.47665 c -0.46096,-1.116181 -0.80668,-2.349236 -1.03551,-3.695893 -0.23048,-1.346656 -0.42803,-2.76081 -0.59101,-4.239166 -0.16463,-1.478355 -0.29633,-2.989639 -0.39511,-4.533844 -0.0988,-1.544208 -0.24529,-3.007748 -0.44285,-4.387329 -0.52681,-3.679428 -1.64298,-6.372738 -3.35182,-8.083221 -1.71048,-1.707188 -4.502564,-2.563252 -8.379548,-2.563252 H 79.253426 V 75.039055 H 63.778419 Z M 79.253426,36.496418 h 16.956649 c 3.481873,0 6.125795,-0.78857 7.935055,-2.365704 1.80597,-1.577133 2.70977,-4.140384 2.70977,-7.689758 0,-3.416025 -0.9038,-5.896965 -2.70977,-7.441172 -1.80926,-1.544208 -4.453182,-2.317958 -7.935055,-2.317958 H 79.253426 Z"
   id="path7454" />
					<path
   class="st0"
   d="m 192.71318,48.423695 c 0,9.530296 -2.66202,16.627399 -7.98444,21.292942 -5.32406,4.667198 -12.68457,6.998329 -22.08151,6.998329 -9.5303,0 -16.90562,-2.316315 -22.1309,-6.948937 -5.22364,-4.634269 -7.83628,-11.746189 -7.83628,-21.342334 V 4.6557722 h 15.47666 V 48.423694 c 0,1.906387 0.16298,3.77985 0.49223,5.618743 0.32761,1.840535 1.01904,3.485169 2.07102,4.928952 1.05032,1.447078 2.51387,2.597824 4.38568,3.450596 1.87346,0.854419 4.38733,1.280803 7.54159,1.280803 5.51996,0 9.3311,-1.231414 11.43505,-3.695892 2.10229,-2.464474 3.15426,-6.324993 3.15426,-11.583202 V 4.6557722 h 15.47664 z"
   id="path7456" />
					<path
   class="st0"
   d="m 214.59715,51.676735 c 0,2.365704 0.42638,4.370869 1.28079,6.013851 0.85279,1.642986 1.98707,2.973175 3.40122,3.992222 1.41251,1.019047 3.0555,1.774689 4.92895,2.266922 1.87182,0.492241 3.85888,0.739181 5.96282,0.739181 1.38122,0 2.85959,-0.113594 4.43672,-0.345718 1.57713,-0.228836 3.05548,-0.671681 4.43506,-1.330193 1.38122,-0.65522 2.53033,-1.560672 3.45061,-2.711418 0.92025,-1.147457 1.37957,-2.610996 1.37957,-4.385681 0,-1.904743 -0.60748,-3.4506 -1.82243,-4.632626 -1.21825,-1.183673 -2.8102,-2.184608 -4.78079,-3.007747 -1.97223,-0.819847 -4.20787,-1.509636 -6.70363,-2.069371 -2.49905,-0.558086 -5.02774,-1.19849 -7.59099,-1.922851 -2.6291,-0.655216 -5.19235,-1.461895 -7.68811,-2.415089 -2.49905,-0.951546 -4.7314,-2.182964 -6.70364,-3.695892 -1.97225,-1.51128 -3.56584,-3.384743 -4.78079,-5.618744 -1.2166,-2.233997 -1.82407,-4.993156 -1.82407,-8.280771 0,-3.613579 0.77209,-6.753029 2.31631,-9.413413 1.54421,-2.66203 3.56418,-4.8795647 6.06324,-6.6542515 2.49575,-1.7746868 5.32241,-3.0884161 8.47668,-3.9428339 3.15427,-0.8544178 6.31018,-1.2824497 9.46445,-1.2824497 3.67943,0 7.21069,0.4115694 10.59707,1.2330618 3.38311,0.8214922 6.38921,2.1533303 9.01831,3.9922218 2.62746,1.8405375 4.71494,4.1897745 6.26079,7.0477115 1.54256,2.859583 2.31632,6.326643 2.31632,10.399532 h -14.98442 c -0.1317,-2.102295 -0.57619,-3.844057 -1.33019,-5.223636 -0.75564,-1.381228 -1.75987,-2.464478 -3.0061,-3.253044 -1.24953,-0.788567 -2.6966,-1.346654 -4.33794,-1.67591 -1.64299,-0.32761 -3.38475,-0.493884 -5.22528,-0.493884 -1.24788,0 -2.4974,0.133349 -3.74528,0.395107 -1.24953,0.263405 -2.38216,0.724361 -3.40122,1.379581 -1.01904,0.65851 -1.85699,1.496466 -2.51385,2.513865 -0.65688,1.020691 -0.98449,2.252105 -0.98449,3.697538 0,1.37958 0.26177,2.497402 0.78858,3.350174 0.52516,0.856064 1.55902,1.62652 3.10487,2.317957 1.54256,0.689791 3.67943,1.412506 6.40732,2.168148 2.72623,0.75564 6.29207,1.692371 10.69586,2.808548 0.85277,0.197552 1.97058,0.477421 3.35181,0.837956 1.37959,0.362178 2.84148,0.856063 4.38568,1.480003 1.54422,0.623939 3.08842,1.428966 4.63263,2.415089 1.5442,0.984474 2.95836,2.201072 4.23917,3.646503 1.28245,1.447075 2.31631,3.170727 3.10488,5.175896 0.78855,2.005165 1.18366,4.321476 1.18366,6.948932 0,3.22012 -0.62558,6.209759 -1.87344,8.970566 -1.24955,2.760803 -3.10489,5.142967 -5.56937,7.146484 -2.46448,2.005166 -5.51997,3.582299 -9.16812,4.7314 -3.6465,1.149101 -7.87085,1.725304 -12.66646,1.725304 -3.87862,0 -7.64037,-0.492241 -11.28686,-1.478356 -3.64815,-0.986122 -6.85181,-2.497406 -9.61098,-4.533851 -2.76081,-2.036446 -4.97833,-4.63427 -6.65425,-7.788537 -1.67591,-3.154266 -2.48093,-6.899547 -2.41509,-11.237487 z"
   id="path7458" />
					<path
   class="st0"
   d="m 285.27512,4.6557722 h 15.87011 L 327.46591,75.039058 H 311.39822 L 306.07419,59.3665 h -26.31903 l -5.52164,15.672558 H 258.56097 Z M 283.79675,47.83268 h 18.23581 l -8.87179,-25.826794 h -0.19754 z"
   id="path7460" />
				</g>
			</g>
		</g>
		<g
   id="g7474">
			<path
   class="st1"
   d="m 352.2753,4.5767512 h 31.49329 c 4.36755,0 8.08486,0.6354628 11.15023,1.9063888 3.06372,1.2709255 5.55783,2.9517746 7.48233,5.037607 1.92286,2.08748 3.32547,4.482812 4.20459,7.187646 0.88074,2.70648 1.32032,5.462347 1.32032,8.265957 0,2.869461 -0.43958,5.640144 -1.32032,8.312054 -0.87912,2.675197 -2.28174,5.054069 -4.20459,7.139904 -1.9245,2.087478 -4.41861,3.766681 -7.48233,5.037605 -3.06537,1.270927 -6.78268,1.906391 -11.15023,1.906391 H 367.63177 V 74.408531 H 352.2753 Z M 367.63177,37.438088 H 379.564 c 1.75985,0 3.45388,-0.130059 5.08532,-0.390168 1.62818,-0.260113 3.06372,-0.765518 4.30338,-1.516224 1.238,-0.749054 2.23236,-1.809257 2.98306,-3.178958 0.74905,-1.369704 1.12439,-3.162499 1.12439,-5.378388 0,-2.215889 -0.37534,-4.01033 -1.12439,-5.380033 -0.7507,-1.369704 -1.74506,-2.428259 -2.98306,-3.178961 -1.23966,-0.749056 -2.6752,-1.254463 -4.30338,-1.516222 -1.63144,-0.258465 -3.32547,-0.390167 -5.08532,-0.390167 h -11.93223 z"
   id="path7468" />
			<path
   class="st1"
   d="m 415.5549,4.5767512 h 37.65527 c 3.12958,0 5.94965,0.5054069 8.46024,1.516221 2.50891,1.0108142 4.66061,2.3953328 6.45505,4.1552038 1.79278,1.761516 3.1625,3.814423 4.10745,6.162014 0.94498,2.347592 1.4191,4.826884 1.4191,7.43294 0,4.109108 -0.86594,7.66342 -2.5929,10.661291 -1.72857,2.999516 -4.54699,5.281258 -8.4602,6.846867 v 0.195907 c 1.89157,0.52187 3.45553,1.320313 4.69519,2.395333 1.23797,1.076664 2.24881,2.364051 3.03244,3.863811 0.78198,1.49976 1.35159,3.114758 1.71048,4.841702 0.35888,1.726944 0.60254,3.471996 0.73422,5.231868 0.0642,1.109589 0.13007,2.413441 0.19592,3.911553 0.0642,1.501403 0.1778,3.017627 0.34241,4.548664 0.16135,1.532684 0.4231,3.015976 0.78198,4.44989 0.35724,1.435547 0.8956,2.640625 1.61338,3.618515 H 460.3501 c -0.45767,-1.107948 -0.80011,-2.329483 -1.02729,-3.667908 -0.22882,-1.335129 -0.42474,-2.737755 -0.58609,-4.20459 -0.16461,-1.466835 -0.29467,-2.96659 -0.39181,-4.499275 -0.0971,-1.531036 -0.24362,-2.983055 -0.43955,-4.352756 -0.52349,-3.649796 -1.63146,-6.323349 -3.32547,-8.019017 -1.69732,-1.695663 -4.46801,-2.543499 -8.31372,-2.543499 H 430.91138 V 74.408531 H 415.5549 Z M 430.91138,36.16716 h 16.82165 c 3.45554,0 6.07968,-0.781982 7.87415,-2.347591 1.79114,-1.563961 2.68835,-4.10746 2.68835,-7.628847 0,-3.389685 -0.89721,-5.850869 -2.68835,-7.383553 -1.79447,-1.531037 -4.41861,-2.298203 -7.87415,-2.298203 h -16.82165 z"
   id="path7470" />
			<path
   class="st1"
   d="m 481.18042,39.785679 c 0,-5.149555 0.78198,-9.976441 2.34595,-14.47407 1.56561,-4.499275 3.81442,-8.412475 6.74975,-11.737954 2.93366,-3.325479 6.51926,-5.931536 10.75843,-7.8231085 4.23751,-1.8915722 9.06109,-2.8365352 14.47406,-2.8365352 5.41131,0 10.23657,0.944963 14.4757,2.8365352 4.23749,1.8915725 7.82477,4.4976295 10.75843,7.8231085 2.93365,3.32548 5.18414,7.238679 6.7481,11.737954 1.56562,4.497629 2.3476,9.324515 2.3476,14.47407 0,5.022789 -0.78198,9.749252 -2.3476,14.182674 -1.56396,4.433426 -3.81445,8.280774 -6.7481,11.540406 -2.93366,3.261268 -6.52094,5.836052 -10.75843,7.725975 -4.23913,1.891571 -9.06439,2.836532 -14.4757,2.836532 -5.41297,0 -10.23655,-0.944961 -14.47406,-2.836532 -4.23917,-1.889923 -7.82477,-4.464707 -10.75843,-7.725975 -2.93533,-3.259632 -5.18414,-7.10698 -6.74975,-11.540406 -1.56397,-4.433422 -2.34595,-9.159885 -2.34595,-14.182674 z m 15.35483,0 c 0,2.933666 0.34244,5.788307 1.02728,8.558994 0.68485,2.770684 1.77469,5.264794 3.27609,7.480683 1.49976,2.217533 3.45554,3.995513 5.86899,5.330642 2.41016,1.336777 5.34543,2.005165 8.801,2.005165 3.4555,0 6.39087,-0.668388 8.80261,-2.005165 2.4118,-1.335129 4.36761,-3.113109 5.86902,-5.330642 1.4981,-2.215889 2.59124,-4.709999 3.27606,-7.480683 0.68487,-2.770687 1.02728,-5.625328 1.02728,-8.558994 0,-3.063725 -0.34241,-6.030315 -1.02728,-8.899775 -0.68482,-2.867815 -1.77796,-5.427776 -3.27606,-7.678236 -1.50141,-2.248815 -3.45722,-4.04161 -5.86902,-5.378387 -2.41175,-1.336777 -5.34711,-2.005165 -8.80261,-2.005165 -3.45557,0 -6.39084,0.668388 -8.801,2.005165 -2.41345,1.336777 -4.36923,3.129572 -5.86899,5.378387 -1.5014,2.25046 -2.59124,4.810421 -3.27609,7.678236 -0.68484,2.86946 -1.02728,5.83605 -1.02728,8.899775 z"
   id="path7472" />
		</g>
	</g>
	<g
   id="g7492">
		<g
   id="g7480">
			<path
   class="st0"
   d="M 779.77057,82.537186 H 595.98383 c -11.12622,0 -20.22944,-9.103257 -20.22944,-20.229454 V 20.229452 C 575.75439,9.1032534 584.85761,0 595.98383,0 H 779.77057 C 790.89673,0 800,9.1032534 800,20.229452 V 62.30773 c 0,11.126199 -9.10327,20.229456 -20.22943,20.229456 z"
   id="path7478" />
		</g>
		<g
   id="g7490">
			<path
   d="m 593.22253,10.466307 h 13.00721 v 22.702162 h 23.94677 V 10.466307 h 13.00721 V 69.624449 H 630.17651 V 44.105507 h -23.94677 v 25.518944 h -13.00721 z"
   id="path7482" />
			<path
   d="M 666.05219,21.403349 H 648.32178 V 10.466307 h 48.46966 v 10.937042 h -17.7304 v 48.2211 h -13.00885 z"
   id="path7484" />
			<path
   d="m 710.13123,54.710827 c 0.38525,1.934372 1.26928,3.618515 2.65051,5.054069 1.38122,1.437199 3.09338,2.154976 5.13806,2.154976 2.15332,0 3.92139,-0.622291 5.30261,-1.863586 1.37958,-1.242939 2.4859,-2.762451 3.31397,-4.55854 0.82806,-1.794442 1.42236,-3.714001 1.78125,-5.757031 0.35888,-2.04303 0.59271,-3.867104 0.70465,-5.468933 l -0.16626,-0.166275 c -1.60187,2.319607 -3.47864,3.977405 -5.63361,4.97176 -2.15497,0.99435 -4.64087,1.491523 -7.45764,1.491523 -2.48584,0 -4.91742,-0.53833 -7.29132,-1.616642 -2.37561,-1.076664 -4.39063,-2.527034 -6.04846,-4.349464 -1.54749,-1.767277 -2.68012,-3.783146 -3.39624,-6.04842 -0.71942,-2.264454 -1.07831,-4.556896 -1.07831,-6.877323 0,-2.982231 0.48401,-5.757855 1.45038,-8.32687 0.96637,-2.568192 2.34759,-4.805483 4.14367,-6.711048 1.79444,-1.905565 3.93457,-3.410263 6.42048,-4.515738 2.4859,-1.104652 5.24835,-1.656978 8.2857,-1.656978 4.36261,0 7.98114,0.870058 10.85388,2.610172 2.87116,1.739292 5.16437,4.032556 6.87818,6.876499 1.71045,2.845591 2.89911,6.063238 3.56256,9.652947 0.6618,3.591352 0.99432,7.208223 0.99432,10.853902 0,3.535382 -0.41485,7.11274 -1.24292,10.729611 -0.82806,3.618519 -2.15497,6.878147 -3.97742,9.777241 -1.82244,2.900737 -4.17169,5.261501 -7.04278,7.083927 -2.87274,1.824074 -6.37933,2.734466 -10.52301,2.734466 -5.02606,0 -9.25208,-1.394393 -12.67633,-4.183189 -3.4259,-2.788792 -5.46893,-6.753029 -6.13239,-11.891056 z m 8.45031,-13.008061 c 1.5459,0 2.91394,-0.289745 4.10254,-0.870056 1.18695,-0.579491 2.16651,-1.367233 2.94025,-2.361583 0.77374,-0.993531 1.35327,-2.13934 1.74011,-3.438252 0.3869,-1.297264 0.58118,-2.664497 0.58118,-4.100876 0,-1.326074 -0.20746,-2.637335 -0.62232,-3.936247 -0.41485,-1.297268 -1.02234,-2.457069 -1.82245,-3.48023 -0.80169,-1.020693 -1.78125,-1.8356 -2.94189,-2.443899 -1.15894,-0.606653 -2.48584,-0.911213 -3.97742,-0.911213 -1.43554,0 -2.69165,0.30456 -3.76996,0.911213 -1.07666,0.608299 -2.00183,1.40839 -2.77563,2.402742 -0.77374,0.994351 -1.35321,2.12699 -1.73846,3.397093 -0.38849,1.271748 -0.58112,2.569015 -0.58112,3.894268 0,1.381227 0.17944,2.721296 0.53833,4.01856 0.35889,1.298916 0.89722,2.458718 1.61664,3.480233 0.71777,1.022338 1.643,1.851238 2.77563,2.485878 1.13098,0.635463 2.44306,0.952369 3.93457,0.952369 z"
   id="path7486" />
			<path
   d="m 742.36206,40.37669 c 0,-5.63356 0.56464,-10.369898 1.69891,-14.209015 1.13105,-3.839119 2.6637,-6.91848 4.59809,-9.238907 1.93274,-2.319605 4.18481,-3.976582 6.75305,-4.970934 2.56818,-0.994351 5.28784,-1.491527 8.16058,-1.491527 2.87274,0 5.60553,0.497176 8.20337,1.491527 2.59455,0.994352 4.87299,2.651329 6.83533,4.970934 1.95911,2.320427 3.50659,5.399788 4.63922,9.238907 1.13263,3.839119 1.69897,8.575455 1.69897,14.209015 0,5.799835 -0.56634,10.634952 -1.69897,14.500408 -1.13263,3.867108 -2.68011,6.988445 -4.63922,9.362381 -1.96234,2.375572 -4.24078,4.059715 -6.83533,5.05407 -2.59784,0.994346 -5.33063,1.491523 -8.20337,1.491523 -2.87274,0 -5.5924,-0.497177 -8.16058,-1.491523 -2.56824,-0.994355 -4.82031,-2.678498 -6.75305,-5.05407 -1.93439,-2.373936 -3.46704,-5.495273 -4.59809,-9.362381 -1.13427,-3.865456 -1.69891,-8.700573 -1.69891,-14.500408 z m 11.76593,0 c 0,1.657802 0.0543,3.6605 0.16461,6.007267 0.11029,2.349235 0.45606,4.612865 1.03717,6.794185 0.57947,2.182961 1.50305,4.046547 2.77564,5.592404 1.26928,1.547497 3.09167,2.321247 5.46728,2.321247 2.37555,0 4.22596,-0.77375 5.55121,-2.321247 1.32526,-1.545857 2.27844,-3.409443 2.85962,-5.592404 0.57947,-2.18132 0.92352,-4.44495 1.03552,-6.794185 0.11029,-2.346767 0.16626,-4.349465 0.16626,-6.007267 0,-0.993527 -0.0148,-2.195309 -0.0428,-3.603699 -0.028,-1.40839 -0.13825,-2.858761 -0.33088,-4.350288 -0.19427,-1.490704 -0.46917,-2.968237 -0.82806,-4.4326 -0.36053,-1.462717 -0.89886,-2.775624 -1.61664,-3.935425 -0.71777,-1.159803 -1.62982,-2.099003 -2.73449,-2.817604 -1.10462,-0.716953 -2.45789,-1.076664 -4.0597,-1.076664 -1.5459,0 -2.87274,0.359711 -3.97577,1.076664 -1.10632,0.718601 -2.00354,1.657801 -2.69329,2.817604 -0.69147,1.159801 -1.23145,2.472708 -1.61664,3.935425 -0.3869,1.464363 -0.66181,2.941896 -0.82813,4.4326 -0.16626,1.491527 -0.26336,2.941898 -0.28973,4.350288 -0.028,1.40839 -0.0411,2.610173 -0.0411,3.603699 z"
   id="path7488" />
		</g>
	</g>
</g>
</svg>
