<?xml version="1.0" encoding="UTF-8" standalone="no"?>
<svg
   version="1.0"
   viewBox="0 0 600.00002 450.00001"
   id="svg4"
   sodipodi:docname="prusa_logo.svg"
   inkscape:version="1.2.2 (b0a8486541, 2022-12-01)"
   width="600"
   height="450"
   xmlns:inkscape="http://www.inkscape.org/namespaces/inkscape"
   xmlns:sodipodi="http://sodipodi.sourceforge.net/DTD/sodipodi-0.dtd"
   xmlns="http://www.w3.org/2000/svg"
   xmlns:svg="http://www.w3.org/2000/svg">
  <defs
     id="defs8" />
  <sodipodi:namedview
     id="namedview6"
     pagecolor="#000000"
     bordercolor="#000000"
     borderopacity="0.25"
     inkscape:showpageshadow="2"
     inkscape:pageopacity="0"
     inkscape:pagecheckerboard="0"
     inkscape:deskcolor="#d1d1d1"
     showgrid="false"
     inkscape:zoom="1.0607045"
     inkscape:cx="341.754"
     inkscape:cy="266.80381"
     inkscape:window-width="1920"
     inkscape:window-height="1019"
     inkscape:window-x="0"
     inkscape:window-y="542"
     inkscape:window-maximized="1"
     inkscape:current-layer="svg4" />
  <path
     d="m 58.660696,47.893569 c 7.864012,0 14.560541,1.135062 20.08958,3.405185 5.529041,2.270123 10.022762,5.260574 13.481166,8.993181 3.458403,3.732606 5.99163,7.967261 7.577651,12.747614 1.586017,4.780355 2.379027,9.71351 2.379027,14.843114 0,4.998636 -0.79301,9.93179 -2.379027,14.755797 -1.586021,4.82402 -4.119248,9.10233 -7.577651,12.83493 -3.458404,3.73261 -7.952125,6.72306 -13.481166,8.99318 -5.529039,2.27013 -12.225568,3.40519 -20.08958,3.40519 H 29.583671 v 44.70396 H 1.9164403 V 47.893569 Z m -7.577649,58.673961 c 3.172037,0 6.233937,-0.24011 9.163668,-0.6985 2.929731,-0.4584 5.52904,-1.37518 7.753873,-2.70669 2.224832,-1.33152 4.031133,-3.23056 5.374844,-5.675309 1.343711,-2.444748 2.026581,-5.653479 2.026581,-9.604368 0,-3.950887 -0.68287,-7.159618 -2.026581,-9.604368 -1.343711,-2.444748 -3.150012,-4.343793 -5.374844,-5.675309 -2.224833,-1.331514 -4.824142,-2.248293 -7.753873,-2.706683 -2.929731,-0.458391 -5.991631,-0.698501 -9.163668,-0.698501 H 29.583671 V 106.56753 Z M 186.93003,47.893569 c 5.63918,0 10.72765,0.894953 15.2434,2.706686 4.51576,1.811732 8.3927,4.278307 11.63082,7.421555 3.23812,3.14325 5.70525,6.788542 7.40143,10.914055 1.69616,4.125512 2.55524,8.578446 2.55524,13.358804 0,7.334243 -1.56399,13.686223 -4.66994,19.034111 -3.10597,5.34789 -8.19443,9.42974 -15.24341,12.22374 v 0.34925 c 3.41434,0.93861 6.23395,2.35743 8.45876,4.27831 2.22482,1.92087 4.05316,4.191 5.46295,6.81037 1.40983,2.61937 2.44513,5.50068 3.08396,8.64393 0.63881,3.14325 1.07936,6.28649 1.32166,9.42974 0.11009,1.98636 0.24233,4.30014 0.35244,6.98499 0.11009,2.68486 0.33044,5.41337 0.61678,8.20737 0.28637,2.794 0.77098,5.4352 1.40981,7.94543 0.63881,2.51023 1.60805,4.62756 2.9077,6.37381 h -27.66722 c -1.51994,-3.95089 -2.46715,-8.66576 -2.8196,-14.14462 -0.35243,-5.47885 -0.88111,-10.71759 -1.58602,-15.71623 -0.9472,-6.5266 -2.92972,-11.28513 -5.99163,-14.31924 -3.06189,-3.0341 -8.04023,-4.54024 -14.97907,-4.54024 h -27.6452 v 48.72033 H 119.10566 V 47.893569 Z m -9.86857,56.403831 c 6.34408,0 11.10214,-1.397 14.27418,-4.191 3.17203,-2.793994 4.75806,-7.334242 4.75806,-13.620736 0,-6.046385 -1.58603,-10.455664 -4.75806,-13.184177 -3.17204,-2.728513 -7.9301,-4.103685 -14.27418,-4.103685 H 146.77289 V 104.2974 Z m 161.42155,58.76126 c -9.51612,8.20737 -22.66687,12.31106 -39.47427,12.31106 -17.02767,0 -30.22249,-4.08186 -39.56238,-12.22374 -9.33988,-8.14189 -14.00984,-20.71488 -14.00984,-37.71897 V 47.893569 h 27.66724 v 77.533441 c 0,3.38336 0.28637,6.70123 0.88113,9.95362 0.59475,3.25238 1.82829,6.13369 3.70071,8.64392 1.87237,2.51024 4.49371,4.54025 7.84198,6.11188 3.34825,1.57162 7.84198,2.35743 13.48116,2.35743 9.86856,0 16.67525,-2.18281 20.44204,-6.54843 3.76678,-4.36562 5.63917,-11.19782 5.63917,-20.51842 V 47.893569 h 27.66723 v 77.533441 c 0,16.87312 -4.75806,29.42429 -14.27417,37.63165 z m 58.85894,-21.21692 c 1.51995,2.90314 3.54653,5.26058 6.07972,7.07231 2.53325,1.81173 5.48501,3.14325 8.89935,4.01637 3.41435,0.87313 6.93884,1.30969 10.57348,1.30969 2.46713,0 5.1105,-0.19645 7.93007,-0.61119 2.81961,-0.41473 5.46298,-1.20054 7.93011,-2.35743 a 17.364712,17.207098 0 0 0 6.16786,-4.80219 c 1.6521,-2.03001 2.46714,-4.62756 2.46714,-7.7708 0,-3.38336 -1.07937,-6.11187 -3.26015,-8.20737 -2.18078,-2.0955 -5.02241,-3.84175 -8.54688,-5.23875 -3.52449,-1.39699 -7.51156,-2.61937 -11.98327,-3.66712 a 316.76337,313.88821 0 0 1 -13.56928,-3.49249 c -4.69197,-1.15689 -9.27381,-2.59755 -13.7455,-4.27831 -4.47168,-1.68077 -8.45877,-3.86358 -11.98326,-6.54844 -3.5245,-2.68485 -6.36611,-6.02455 -8.54686,-10.040927 -2.18079,-4.016372 -3.26018,-8.88404 -3.26018,-14.581176 0,-6.395637 1.38776,-11.961803 4.14128,-16.676676 2.7535,-4.71487 6.36612,-8.643929 10.83781,-11.787176 4.47168,-3.143248 9.51611,-5.478856 15.1553,-6.984995 5.63917,-1.50614 11.27834,-2.270123 16.91754,-2.270123 6.58637,0 12.88641,0.720327 18.94412,2.182811 6.05771,1.462483 11.43254,3.819918 16.12453,7.072307 a 36.037888,35.710784 0 0 1 11.19025,12.485677 c 2.7535,5.064121 4.14129,11.19782 4.14129,18.422925 h -26.78614 c -0.2423,-3.732609 -1.03531,-6.810372 -2.37903,-9.25512 -1.3437,-2.444748 -3.14999,-4.36562 -5.37482,-5.762621 -2.22484,-1.396997 -4.7801,-2.379263 -7.66578,-2.968621 -2.88566,-0.589361 -6.01366,-0.873126 -9.42801,-0.873126 -2.22481,0 -4.47168,0.24011 -6.6965,0.698501 -2.22485,0.458388 -4.25144,1.287858 -6.07975,2.444749 -1.82835,1.156887 -3.32626,2.619371 -4.49373,4.365621 -1.1675,1.746247 -1.76224,3.950887 -1.76224,6.635744 0,2.444748 0.4626,4.431105 1.4098,5.937247 0.94721,1.506139 2.79755,2.903136 5.55107,4.190997 2.75352,1.287857 6.5864,2.553888 11.45459,3.841745 4.86819,1.287858 11.25632,2.90314 19.12034,4.889497 2.35701,0.45839 5.61716,1.30969 9.78046,2.53206 4.1633,1.22237 8.30457,3.16507 12.42382,5.84993 4.11922,2.68486 7.66576,6.26467 10.66157,10.73943 2.99581,4.47477 4.49373,10.21556 4.49373,17.20055 0,5.69713 -1.12344,11.00136 -3.34828,15.89086 -2.22482,4.8895 -5.55107,9.10232 -9.95667,12.6603 -4.40562,3.55799 -9.86857,6.30833 -16.38888,8.29469 -6.52029,1.98635 -14.07592,2.96862 -22.64483,2.96862 -6.93884,0 -13.65741,-0.8513 -20.17769,-2.53206 -6.5203,-1.68077 -12.26963,-4.3438 -17.26998,-7.94543 -5.00039,-3.60164 -8.96542,-8.20737 -11.89517,-13.79537 -2.92973,-5.58799 -4.33953,-12.22374 -4.22938,-19.90723 h 26.78612 c 0,4.191 0.77097,7.74898 2.29091,10.65211 z M 552.94811,47.893569 600,172.57572 h -28.72456 l -9.51612,-27.76535 h -47.05191 l -9.86859,27.76535 h -27.84346 l 47.5806,-124.682151 z m 1.586,76.485691 -15.8602,-45.751715 h -0.35244 l -16.38888,45.751715 z m -231.33858,116.12554 -9.22976,25.73534 h 18.32733 l -8.92135,-25.73534 z m 73.26529,-5.30423 h -17.0497 v 19.73261 h 17.0497 c 3.56855,0 6.23396,-0.78584 8.01822,-2.35745 1.78427,-1.57161 2.6654,-4.12551 2.6654,-7.66165 0,-3.40519 -0.88113,-5.87178 -2.6654,-7.42158 -1.78426,-1.50613 -4.44967,-2.29193 -8.01822,-2.29193 z M 1.4979074,187.13507 V 328.29743 H 599.18497 V 187.13507 Z M 77.957267,293.35063 c -0.859094,-2.22644 -1.387766,-4.86764 -1.58602,-7.96724 -0.198244,-3.07777 -0.506644,-6.02455 -0.903151,-8.84039 -0.528672,-3.66712 -1.652103,-6.35197 -3.37029,-8.05459 -1.71819,-1.70257 -4.53778,-2.55386 -8.436744,-2.55386 H 48.10926 v 27.41608 H 32.557456 v -70.1337 h 38.17461 c 3.172038,0 6.035685,0.50205 8.568912,1.52797 2.533224,1.02592 4.714002,2.40108 6.542331,4.16917 a 18.701814,18.532064 0 0 1 4.163299,6.1337 c 0.947208,2.33561 1.431825,4.82402 1.431825,7.50885 0,4.12551 -0.881123,7.70534 -2.621338,10.71762 -1.762243,3.01227 -4.603863,5.30424 -8.568911,6.87585 v 0.19642 c 1.916441,0.52387 3.502459,1.33154 4.758059,2.40111 1.255598,1.0914 2.268889,2.35742 3.083926,3.81992 0.793009,1.48432 1.365739,3.09959 1.740216,4.86768 0.35245,1.76805 0.616785,3.53613 0.748954,5.3042 0.06607,1.11324 0.132166,2.42292 0.198243,3.92906 0.06607,1.50616 0.17622,3.05595 0.352449,4.62758 0.154204,1.57161 0.418534,3.05593 0.793011,4.47475 0.352448,1.41883 0.903149,2.59754 1.630075,3.5798 z m 79.697483,0 h -53.72641 v -70.1337 h 52.9334 v 12.9659 h -37.35957 v 15.01773 h 34.29767 v 11.98365 h -34.29767 v 17.20052 h 38.17461 v 12.9659 z m 63.55093,-11.87448 c -1.25561,2.75034 -3.12798,5.12961 -5.59515,7.11595 -2.46715,2.00818 -5.55107,3.558 -9.22974,4.67124 -3.67868,1.11322 -7.90806,1.68075 -12.73221,1.68075 -3.89897,0 -7.68779,-0.4802 -11.34445,-1.41882 -3.65665,-0.93862 -6.9168,-2.44474 -9.71436,-4.47478 -2.81959,-2.03 -5.04443,-4.62754 -6.69653,-7.7708 -1.65211,-3.14324 -2.44512,-6.87586 -2.37903,-11.19781 h 15.06718 c 0,2.35743 0.41854,4.36563 1.27763,6.00273 0.8591,1.63711 2.00456,2.96862 3.41435,3.97271 1.4098,1.02593 3.08393,1.76809 5.00037,2.27012 1.91644,0.50204 3.89896,0.74216 5.94757,0.74216 1.38776,0 2.88567,-0.10909 4.4717,-0.34924 1.58601,-0.2183 3.08392,-0.67669 4.44967,-1.33152 1.38775,-0.65483 2.53322,-1.54979 3.45838,-2.70669 0.92518,-1.13506 1.38777,-2.59754 1.38777,-4.36561 0,-1.89905 -0.61677,-3.44884 -1.82832,-4.62758 -1.23357,-1.17869 -2.81959,-2.16098 -4.80212,-2.94678 -1.98251,-0.78581 -4.22937,-1.48432 -6.74058,-2.07367 -2.51119,-0.58936 -5.04442,-1.24421 -7.6217,-1.96453 -2.64336,-0.65485 -5.22064,-1.46248 -7.73185,-2.40108 -2.51119,-0.93862 -4.75806,-2.18281 -6.74058,-3.68896 -1.98252,-1.50614 -3.59057,-3.38338 -4.80211,-5.65347 -1.23357,-2.27014 -1.82833,-4.99864 -1.82833,-8.20737 0,-3.60166 0.77099,-6.72308 2.33497,-9.38609 1.54197,-2.64121 3.59057,-4.86767 6.10178,-6.63576 2.51119,-1.76807 5.35281,-3.07776 8.52484,-3.92905 3.17204,-0.8513 6.34409,-1.26603 9.51613,-1.26603 3.7007,0 7.24723,0.41473 10.66158,1.22237 3.3923,0.82947 6.43219,2.13916 9.07555,3.97271 a 20.353918,20.169172 0 0 1 6.30002,7.02866 c 1.54196,2.85949 2.33498,6.30832 2.33498,10.36836 H 205.6759 c -0.13214,-2.09552 -0.57274,-3.81993 -1.3437,-5.21692 -0.771,-1.37517 -1.76226,-2.44476 -3.01786,-3.23057 -1.2556,-0.78582 -2.68742,-1.33152 -4.31751,-1.68076 -1.63005,-0.32742 -3.39231,-0.48023 -5.30874,-0.48023 -1.25561,0 -2.5112,0.13095 -3.7668,0.39292 -1.2556,0.26193 -2.40105,0.72032 -3.41434,1.37517 -1.03533,0.65483 -1.8724,1.4843 -2.53324,2.44474 -0.66083,0.98227 -0.99125,2.22646 -0.99125,3.7326 0,1.37517 0.26433,2.48843 0.79301,3.33971 0.52866,0.85129 1.56398,1.63711 3.12798,2.35745 1.54196,0.7203 3.70071,1.44064 6.45422,2.16097 2.73147,0.72034 6.32205,1.63712 10.74968,2.75034 1.32168,0.26195 3.15002,0.74216 5.50702,1.41882 2.33496,0.67669 4.66994,1.78991 6.9829,3.29605 2.31292,1.50616 4.31748,3.51434 5.99162,6.04639 1.69615,2.53206 2.53321,5.74079 2.53321,9.66985 -0.0439,3.23055 -0.66084,6.22103 -1.91642,8.97135 z m 64.63029,11.87448 h -53.72641 v -70.1337 h 52.93339 v 12.9659 h -37.35956 v 15.01773 h 34.29768 v 11.98365 h -34.29768 v 17.20052 H 285.858 v 12.9659 z m 55.9072,0 -5.35284,-15.6071 h -26.45569 l -5.55105,15.6071 h -15.66196 l 26.76408,-70.1337 h 15.97035 l 26.47772,70.1337 z m 67.49393,0 c -0.85909,-2.22644 -1.38777,-4.86764 -1.58603,-7.96724 -0.19822,-3.07777 -0.50663,-6.02455 -0.90313,-8.84039 -0.52867,-3.66712 -1.65212,-6.35197 -3.3703,-8.05459 -1.71819,-1.70257 -4.51574,-2.55386 -8.41473,-2.55386 h -15.57383 v 27.41608 h -15.57381 v -70.1337 h 38.17461 c 3.17203,0 6.03567,0.50205 8.56892,1.52797 2.5332,1.02592 4.71397,2.40108 6.5423,4.16917 a 18.701814,18.532064 0 0 1 4.1633,6.1337 c 0.94721,2.33561 1.43184,4.82402 1.43184,7.50885 0,4.12551 -0.88112,7.70534 -2.62133,10.71762 -1.74023,3.01227 -4.60388,5.30424 -8.56892,6.87585 v 0.19642 c 1.91643,0.52387 3.50245,1.33154 4.75806,2.40111 1.2556,1.0914 2.29092,2.35742 3.0619,3.81992 0.79302,1.48432 1.36573,3.09959 1.74021,4.86768 0.35245,1.76805 0.6168,3.53613 0.74896,5.3042 0.0662,1.11324 0.13214,2.42292 0.19821,3.92906 0.0662,1.50616 0.17626,3.05595 0.35245,4.62758 0.1542,1.57161 0.41855,3.05593 0.79303,4.47475 0.37448,1.41883 0.90314,2.59754 1.63007,3.5798 z m 85.75519,-15.12687 c -1.65211,3.53614 -3.83288,6.54843 -6.54232,9.03683 -2.70947,2.48843 -5.88148,4.38746 -9.51612,5.69716 -3.63464,1.30966 -7.62173,1.96453 -12.00529,1.96453 -5.4189,0 -10.28711,-0.93862 -14.62663,-2.79402 -4.33952,-1.85538 -7.97414,-4.4311 -10.94794,-7.70531 -2.97379,-3.27422 -5.24266,-7.11597 -6.82871,-11.54707 -1.586,-4.43112 -2.37901,-9.18963 -2.37901,-14.2974 0,-5.23877 0.79301,-10.10644 2.37901,-14.58118 1.58605,-4.47476 3.85492,-8.40383 6.82871,-11.74353 2.9738,-3.3397 6.63046,-5.95908 10.94794,-7.85812 4.31751,-1.89905 9.20773,-2.85948 14.62663,-2.85948 3.89896,0 7.57765,0.56753 11.0581,1.68076 3.48042,1.11323 6.56434,2.72851 9.31783,4.86767 2.7315,2.13915 5.00039,4.75853 6.78465,7.90177 1.78427,3.14326 2.9077,6.74489 3.37029,10.80491 h -15.06718 a 12.798297,12.682131 0 0 0 -1.78426,-4.86767 c -0.92518,-1.46247 -2.09268,-2.77217 -3.48044,-3.88539 -1.38777,-1.11323 -2.95175,-1.98636 -4.71402,-2.59755 -1.76224,-0.63302 -3.59057,-0.9386 -5.50701,-0.9386 -3.50245,0 -6.47622,0.67666 -8.92135,2.00818 a 16.873486,16.720331 0 0 0 -5.94757,5.41336 c -1.51995,2.27013 -2.62135,4.82401 -3.32624,7.70534 -0.68287,2.88131 -1.03532,5.87175 -1.03532,8.92768 0,2.94682 0.35245,5.80627 1.03532,8.60029 0.70489,2.794 1.80629,5.28239 3.32624,7.50887 a 16.899919,16.746524 0 0 0 5.94757,5.34788 c 2.44513,1.35335 5.4189,2.00818 8.92135,2.00818 4.75807,0 8.48082,-1.44064 11.14621,-4.32195 2.66539,-2.88133 4.31748,-6.67942 4.91225,-11.39429 h 15.06719 c -0.3745,4.4311 -1.38776,8.38199 -3.03988,11.91815 z m 73.24327,15.12687 h -15.57382 v -30.25375 h -28.63648 v 30.25375 h -15.5518 v -70.1337 h 15.5518 v 26.91405 h 28.63648 v -26.91405 h 15.57382 z M 65.180999,235.20057 H 48.131287 v 19.73261 h 17.049712 c 3.568545,0 6.233938,-0.78584 8.040238,-2.35745 1.784272,-1.57161 2.665394,-4.12551 2.665394,-7.66165 0,-3.40519 -0.881122,-5.87178 -2.665394,-7.42158 -1.8063,-1.50613 -4.471693,-2.29193 -8.040238,-2.29193 z M 22.27036,375.1624 c 1.938464,2.42292 2.885673,5.54433 2.885673,9.38607 0,3.97271 -0.947209,7.26877 -2.863647,9.86631 -1.894413,2.61938 -4.559806,3.90722 -7.974154,3.90722 -2.13672,0 -3.854909,-0.41471 -5.1545634,-1.26602 -0.7709818,-0.50205 -1.6080475,-1.37517 -2.5111978,-2.61938 v 3.20873 H 0 V 363.1351 h 6.7405831 v 12.28922 c 0.8590939,-1.1787 1.8063001,-2.09548 2.8416183,-2.72849 1.2115426,-0.78583 2.7755346,-1.17873 4.6699466,-1.17873 3.414348,0 6.079742,1.22237 8.018212,3.6453 z m -5.639182,15.56344 c 0.969233,-1.39701 1.453851,-3.23055 1.453851,-5.47887 0,-1.81172 -0.242309,-3.31786 -0.726926,-4.49659 -0.90315,-2.24828 -2.577281,-3.38335 -5.000367,-3.38335 -2.4671419,0 -4.1633017,1.0914 -5.0884797,3.29606 -0.484617,1.17869 -0.7269256,2.68483 -0.7269256,4.54025 0,2.1828 0.484617,3.99453 1.4758792,5.43517 0.9912622,1.44067 2.4891691,2.16099 4.5157501,2.16099 1.762244,0.0219 3.127983,-0.67667 4.097218,-2.07366 z m 14.230121,11.83082 0.859091,0.0435 c 0.660842,0.0219 1.299656,0 1.894412,-0.0656 0.594759,-0.0874 1.101403,-0.26195 1.519935,-0.54572 0.396507,-0.26195 0.770984,-0.82945 1.101405,-1.65894 0.33042,-0.85129 0.484615,-1.35333 0.44056,-1.54979 l -9.472063,-26.67396 h 7.511566 l 5.639181,18.8595 5.330789,-18.8595 h 7.159116 l -8.833248,25.146 c -1.71819,4.84584 -3.0619,7.8581 -4.053164,9.01501 -0.99126,1.1569 -2.973785,1.74625 -5.969598,1.74625 -0.594759,0 -1.079376,0 -1.453853,-0.0219 -0.374476,0 -0.903148,-0.0437 -1.630076,-0.0874 v -5.34788 z M 79.38909,377.38884 v 1.22239 c 0.08813,4.12552 0.528674,7.02864 1.277628,8.7094 0.770981,1.68078 2.401056,2.51025 4.934282,2.51025 2.489169,0 4.141274,-0.91678 4.95631,-2.75034 0.484618,-1.09141 0.726927,-2.92497 0.726927,-5.50069 v -37.36972 h 11.256333 v 37.17326 c 0,4.54025 -0.77098,8.1419 -2.33497,10.80491 -2.621339,4.49662 -7.357372,6.74491 -14.186068,6.74491 -6.828694,0 -11.432557,-1.81174 -13.767531,-5.45703 -2.334973,-3.6453 -3.502457,-8.60029 -3.502457,-14.86495 v -1.22239 z m 76.59152,15.51981 c -4.07519,4.14733 -9.95667,6.24284 -17.66649,6.24284 -7.70982,0 -13.5913,-2.07369 -17.66649,-6.24284 -5.46296,-5.08595 -8.19444,-12.44204 -8.19444,-22.02456 0,-9.77899 2.73148,-17.13507 8.19444,-22.02458 4.07519,-4.14733 9.95667,-6.24283 17.66649,-6.24283 7.70982,0 13.5913,2.07368 17.66649,6.24283 5.44094,4.91133 8.15038,12.24559 8.15038,22.02458 0,9.58252 -2.73147,16.91679 -8.15038,22.02456 z m -7.04897,-8.12007 c 2.62134,-3.25238 3.92099,-7.90176 3.92099,-13.92631 0,-5.98091 -1.32167,-10.63029 -3.92099,-13.90452 -2.62134,-3.27422 -6.16785,-4.91133 -10.61752,-4.91133 -4.44967,0 -8.01821,1.63711 -10.6836,4.88949 -2.66539,3.25241 -3.98708,7.90179 -3.98708,13.92636 0,6.02455 1.32169,10.65209 3.98708,13.92631 2.66539,3.25239 6.21191,4.88952 10.6836,4.88952 4.4717,0 7.99618,-1.63713 10.61752,-4.88952 z m 31.91865,-3.62346 c 0.35245,2.44475 1.03532,4.25648 2.0486,5.47886 1.87239,2.20463 5.06646,3.29605 9.60424,3.29605 2.70944,0 4.91224,-0.28377 6.60842,-0.87313 3.21608,-1.11322 4.82413,-3.18691 4.82413,-6.19919 0,-1.76807 -0.793,-3.1214 -2.35701,-4.10369 -1.56398,-0.9386 -4.07519,-1.76805 -7.48953,-2.51021 l -5.83743,-1.26603 c -5.7273,-1.26604 -9.67032,-2.61939 -11.82906,-4.10369 -3.63463,-2.4666 -5.44093,-6.30834 -5.44093,-11.56889 0,-4.78039 1.78427,-8.7531 5.33079,-11.91815 3.54651,-3.16508 8.76716,-4.73671 15.66194,-4.73671 5.74932,0 10.66157,1.4843 14.71474,4.47475 4.05316,2.99046 6.18988,7.31243 6.38812,12.98774 h -10.81575 c -0.19826,-3.20873 -1.65211,-5.50069 -4.33955,-6.85404 -1.80627,-0.89494 -4.03112,-1.33151 -6.71854,-1.33151 -2.97379,0 -5.35282,0.58935 -7.11506,1.74625 -1.78428,1.15691 -2.66539,2.77218 -2.66539,4.84585 0,1.89904 0.88111,3.3397 2.62133,4.2783 1.12344,0.63301 3.50246,1.37517 7.15912,2.20464 l 9.45002,2.20464 c 4.14129,0.96044 7.24723,2.27012 9.31788,3.8854 3.21609,2.51025 4.82414,6.15552 4.82414,10.91406 0,4.8895 -1.89442,8.9277 -5.70528,12.15825 -3.81085,3.23055 -9.18567,4.84584 -16.12451,4.84584 -7.09304,0 -12.68816,-1.59343 -16.74132,-4.75853 -4.0752,-3.1869 -6.10177,-7.55252 -6.10177,-13.09686 z m 81.67999,-27.48159 h -28.5263 v 11.35061 h 26.19134 v 9.27696 h -26.19134 v 13.72987 h 29.848 v 9.60436 h -40.83999 v -53.41336 h 39.54031 v 9.45156 z m 10.11089,-9.38609 h 38.43894 v 9.38609 h -27.24869 v 12.28923 h 23.8784 v 9.27694 h -23.8784 v 22.39563 h -11.19025 z m 102.73881,30.23195 c -3.15,2.61936 -7.66576,3.90722 -13.52521,3.90722 H 350.6425 v 19.20872 h -11.19026 v -53.41336 h 23.12944 c 5.3308,0 9.58221,1.37517 12.75424,4.12551 3.17205,2.75034 4.75808,7.02864 4.75808,12.79128 0.0221,6.3083 -1.56399,10.76124 -4.71402,13.38063 z m -8.59094,-19.25242 c -1.43182,-1.17869 -3.41435,-1.76806 -5.99164,-1.76806 h -10.1549 v 15.73807 h 10.1549 c 2.57729,0 4.55982,-0.63301 5.99164,-1.92089 1.43184,-1.28784 2.13673,-3.31786 2.13673,-6.09004 0,-2.794 -0.72692,-4.75853 -2.13673,-5.95908 z m 56.89845,-9.66983 c 1.98252,0.85131 3.6787,2.09549 5.04443,3.7326 1.14545,1.35333 2.04861,2.85949 2.70944,4.49659 0.66085,1.63712 0.99128,3.51432 0.99128,5.60983 0,2.53205 -0.63881,5.0423 -1.93848,7.48703 -1.29965,2.44476 -3.41434,4.19099 -6.41015,5.1951 2.48916,0.98226 4.2514,2.4011 5.28673,4.21281 1.03531,1.83356 1.56398,4.60574 1.56398,8.36017 v 3.57982 c 0,2.44475 0.0882,4.10369 0.28637,4.95498 0.28637,1.37517 0.99125,2.40108 2.07063,3.03409 v 1.33154 h -12.42379 c -0.35249,-1.17873 -0.59478,-2.13917 -0.72695,-2.85949 -0.28637,-1.50614 -0.46259,-3.03411 -0.48461,-4.60572 l -0.0662,-4.95501 c -0.0439,-3.40517 -0.63881,-5.6753 -1.78423,-6.81034 -1.14548,-1.13508 -3.28221,-1.7026 -6.41019,-1.7026 h -10.99199 v 20.95498 h -11.014 v -53.41339 h 25.79485 c 3.67869,0.0872 6.5203,0.5457 8.50283,1.39701 z m -23.28364,7.90177 v 14.34106 h 12.11541 c 2.40107,0 4.20738,-0.28376 5.41893,-0.87312 2.13672,-1.00409 3.19405,-3.01228 3.19405,-6.02455 0,-3.23057 -1.03531,-5.41337 -3.08392,-6.52661 -1.16748,-0.63302 -2.88567,-0.9386 -5.22063,-0.9386 h -12.42384 z m 42.82254,-9.27694 h 11.45456 v 32.80763 c 0,3.66713 0.44058,6.35199 1.32169,8.03275 1.36576,2.99044 4.31751,4.4966 8.89935,4.4966 4.53776,0 7.48952,-1.50616 8.85527,-4.4966 0.88112,-1.68076 1.32167,-4.36562 1.32167,-8.03275 v -32.80763 h 11.45458 v 32.82947 c 0,5.67531 -0.88109,10.10641 -2.66538,13.27149 -3.30422,5.80627 -9.62626,8.68758 -18.94412,8.68758 -9.31787,0 -15.63993,-2.90313 -18.98818,-8.68758 -1.78428,-3.16508 -2.6654,-7.59618 -2.6654,-13.27149 v -32.82947 z m 62.20719,36.93315 c 0.35246,2.44475 1.03533,4.25648 2.04862,5.47886 1.87237,2.20463 5.06644,3.29605 9.60424,3.29605 2.70942,0 4.91224,-0.28377 6.60841,-0.87313 3.21607,-1.11322 4.82414,-3.18691 4.82414,-6.19919 0,-1.76807 -0.79302,-3.1214 -2.357,-4.10369 -1.56401,-0.9386 -4.07519,-1.76805 -7.48954,-2.51021 l -5.83744,-1.26603 c -5.72729,-1.26604 -9.67032,-2.61939 -11.82907,-4.10369 -3.63462,-2.4666 -5.44091,-6.30834 -5.44091,-11.56889 0,-4.78039 1.78425,-8.7531 5.33078,-11.91815 3.54651,-3.16508 8.76715,-4.73671 15.66193,-4.73671 5.74935,0 10.6616,1.4843 14.71476,4.47475 4.05314,2.99046 6.18987,7.31243 6.38813,12.98774 h -10.81577 c -0.19822,-3.20873 -1.65211,-5.50069 -4.33953,-6.85404 -1.80631,-0.89494 -4.03112,-1.33151 -6.71857,-1.33151 -2.97377,0 -5.35281,0.58935 -7.11506,1.74625 -1.76222,1.15691 -2.66538,2.77218 -2.66538,4.84585 0,1.89904 0.88112,3.3397 2.62135,4.2783 1.12342,0.63301 3.50243,1.37517 7.15909,2.20464 l 9.45005,2.20464 c 4.14128,0.96044 7.24722,2.27012 9.31785,3.8854 3.21612,2.51025 4.82413,6.15552 4.82413,10.91406 0,4.8895 -1.89438,8.9277 -5.70525,12.15825 -3.81084,3.23055 -9.18569,4.84584 -16.12451,4.84584 -7.09304,0 -12.68817,-1.59343 -16.74133,-4.75853 -4.0752,-3.1869 -6.10178,-7.55252 -6.10178,-13.09686 z m 57.25092,-36.93315 h 12.75424 l 19.07628,53.41336 h -12.20353 l -3.56855,-10.97953 h -19.84729 l -3.65665,10.97953 h -11.78499 z m -0.74896,33.22239 h 13.81158 l -6.80665,-21.02049 z"
     id="path2"
     style="fill:#ffffff;stroke-width:2.19277" />
</svg>
