<?xml version="1.0" encoding="UTF-8"?>
<!DOCTYPE svg PUBLIC "-//W3C//DTD SVG 1.1//EN" "http://www.w3.org/Graphics/SVG/1.1/DTD/svg11.dtd">
<!-- Creator: CorelDRAW 2017 -->
<svg xmlns="http://www.w3.org/2000/svg" xml:space="preserve" width="3075px" height="765px" version="1.1" style="shape-rendering:geometricPrecision; text-rendering:geometricPrecision; image-rendering:optimizeQuality; fill-rule:evenodd; clip-rule:evenodd"
viewBox="0 0 3701.41 920.84"
 xmlns:xlink="http://www.w3.org/1999/xlink">
 <defs>
  <style type="text/css">
   <![CDATA[
    .fil0 {fill:none}
    .fil1 {fill:#FEFEFE;fill-rule:nonzero}
    .fil2 {fill:#767477;fill-rule:nonzero}
    .fil3 {fill:#F8651B;fill-rule:nonzero}
   ]]>
  </style>
 </defs>
 <g id="Layer_x0020_1">
  <metadata id="CorelCorpID_0Corel-Layer"/>
  <polygon class="fil0" points="0,0 3701.41,0 3701.41,920.84 0,920.84 "/>
 </g>
 <g id="Layer_x0020_1_0">
  <metadata id="CorelCorpID_1Corel-Layer"/>
  <path class="fil1" d="M140.49 496.68l64.1 0c9.45,0 18.55,0.71 27.31,2.1 8.75,1.41 16.46,4.12 23.13,8.14 6.64,4.03 11.99,9.73 16.02,17.08 4.03,7.35 6.04,16.99 6.04,28.9 0,11.91 -2.01,21.55 -6.04,28.89 -4.03,7.36 -9.38,13.06 -16.02,17.08 -6.67,4.03 -14.38,6.74 -23.13,8.14 -8.76,1.41 -17.86,2.11 -27.31,2.11l-64.1 0 0 -112.44zm-82.49 311.04l82.49 0 0 -134.5 86.69 0c23.46,0 43.43,-3.42 59.89,-10.24 16.46,-6.84 29.86,-15.85 40.2,-27.07 10.32,-11.21 17.86,-23.99 22.59,-38.35 4.73,-14.36 7.09,-29.24 7.09,-44.66 0,-15.05 -2.36,-29.86 -7.09,-44.4 -4.73,-14.53 -12.27,-27.4 -22.59,-38.61 -10.34,-11.21 -23.74,-20.23 -40.2,-27.06 -16.46,-6.83 -36.43,-10.25 -59.89,-10.25l-169.18 0 0 375.14 0 0zm411.07 -311.04l90.36 0c18.57,0 32.66,4.12 42.3,12.35 9.63,8.23 14.45,21.46 14.45,39.66 0,18.92 -4.82,32.58 -14.45,40.99 -9.64,8.4 -23.73,12.61 -42.3,12.61l-90.36 0 0 -105.61zm-82.49 311.04l82.49 0 0 -146.59 82.49 0c20.66,0 35.55,4.56 44.65,13.66 9.11,9.12 15.06,23.47 17.86,43.09 1.06,7.35 1.85,15.15 2.37,23.37 0.53,8.24 1.22,16.29 2.11,24.18 0.87,7.88 1.91,15.42 3.14,22.59 1.23,7.18 3.07,13.74 5.53,19.7l82.48 0c-3.85,-5.25 -6.74,-11.73 -8.67,-19.44 -1.92,-7.71 -3.32,-15.68 -4.2,-23.9 -0.88,-8.24 -1.49,-16.37 -1.84,-24.44 -0.35,-8.05 -0.7,-15.06 -1.05,-21.01 -0.7,-9.47 -2.02,-18.83 -3.94,-28.11 -1.93,-9.28 -4.99,-17.95 -9.2,-26.01 -4.19,-8.05 -9.63,-14.97 -16.28,-20.75 -6.66,-5.79 -15.07,-10.06 -25.22,-12.88l0 -1.04c21.02,-8.42 36.16,-20.67 45.45,-36.79 9.27,-16.1 13.92,-35.19 13.92,-57.26 0,-14.01 -2.55,-27.32 -7.62,-39.93 -5.09,-12.61 -12.44,-23.65 -22.06,-33.11 -9.65,-9.45 -21.2,-16.89 -34.68,-22.32 -13.49,-5.43 -28.63,-8.15 -45.45,-8.15l-202.28 0 0 375.14 0 0 0 0zm679.66 -375.14l-82.49 0 0 233.28c0,28.03 -5.62,48.6 -16.82,61.74 -11.2,13.13 -31.53,19.7 -60.94,19.7 -16.81,0 -30.22,-2.28 -40.2,-6.83 -9.98,-4.55 -17.78,-10.69 -23.38,-18.4 -5.61,-7.69 -9.28,-16.45 -11.03,-26.26 -1.76,-9.8 -2.63,-19.79 -2.63,-29.95l0 -233.28 -82.49 0 0 233.28c0,51.14 13.93,89.05 41.77,113.76 27.85,24.68 67.16,37.03 117.96,37.03 50.08,0 89.32,-12.43 117.68,-37.3 28.38,-24.87 42.57,-62.7 42.57,-113.49l0 -233.28 0 0zm33.25 250.62c-0.35,23.12 3.94,43.09 12.88,59.9 8.92,16.8 20.75,30.65 35.46,41.51 14.71,10.85 31.78,18.91 51.22,24.16 19.45,5.25 39.5,7.88 60.16,7.88 25.56,0 48.08,-3.07 67.52,-9.19 19.44,-6.13 35.72,-14.54 48.86,-25.22 13.13,-10.69 23.02,-23.39 29.68,-38.09 6.66,-14.71 9.98,-30.65 9.98,-47.82 0,-14 -2.09,-26.35 -6.3,-37.03 -4.2,-10.69 -9.71,-19.88 -16.55,-27.58 -6.83,-7.71 -14.36,-14.19 -22.59,-19.46 -8.24,-5.25 -16.47,-9.53 -24.69,-12.87 -8.24,-3.32 -16.03,-5.94 -23.39,-7.87 -7.36,-1.93 -13.31,-3.43 -17.86,-4.48 -23.47,-5.94 -42.47,-10.93 -57,-14.96 -14.54,-4.03 -25.93,-7.89 -34.15,-11.56 -8.23,-3.68 -13.76,-7.8 -16.56,-12.35 -2.8,-4.55 -4.19,-10.51 -4.19,-17.86 0,-7.71 1.74,-14.28 5.24,-19.71 3.5,-5.42 7.97,-9.89 13.4,-13.4 5.43,-3.49 11.47,-5.95 18.13,-7.35 6.65,-1.4 13.3,-2.1 19.96,-2.1 9.8,0 19.1,0.88 27.85,2.62 8.74,1.75 16.46,4.73 23.12,8.93 6.64,4.2 11.99,9.99 16.02,17.34 4.03,7.36 6.39,16.65 7.1,27.85l79.86 0c0,-21.71 -4.12,-40.19 -12.35,-55.43 -8.23,-15.24 -19.36,-27.76 -33.36,-37.57 -14.02,-9.81 -30.05,-16.89 -48.08,-21.28 -18.04,-4.37 -36.87,-6.57 -56.48,-6.57 -16.81,0 -33.62,2.29 -50.43,6.84 -16.82,4.55 -31.89,11.56 -45.19,21.01 -13.32,9.46 -24.09,21.28 -32.32,35.46 -8.23,14.2 -12.34,30.93 -12.34,50.18 0,17.53 3.23,32.23 9.72,44.14 6.48,11.91 14.97,21.89 25.48,29.95 10.51,8.06 22.41,14.62 35.74,19.7 13.3,5.08 26.96,9.37 40.97,12.87 13.66,3.86 27.13,7.27 40.46,10.24 13.31,2.98 25.21,6.67 35.72,11.04 10.52,4.39 19,9.72 25.48,16.02 6.49,6.31 9.72,14.54 9.72,24.69 0,9.47 -2.45,17.26 -7.35,23.39 -4.91,6.14 -11.03,10.94 -18.39,14.44 -7.35,3.51 -15.23,5.88 -23.64,7.1 -8.41,1.23 -16.29,1.83 -23.65,1.83 -11.22,0 -21.8,-1.31 -31.78,-3.93 -9.98,-2.63 -18.75,-6.65 -26.27,-12.09 -7.54,-5.43 -13.58,-12.51 -18.13,-21.27 -4.56,-8.75 -6.83,-19.44 -6.83,-32.05l-79.86 0 0 0zm492.93 -158.15l1.05 0 47.28 137.65 -97.19 0 48.86 -137.65zm-183.37 282.67l83.54 0 29.42 -83.54 140.28 0 28.38 83.54 85.64 0 -140.28 -375.14 -84.6 0 -142.38 375.14z"/>
  <path class="fil2" d="M110.47 157.32c2.38,-9.96 6.17,-18.86 11.39,-26.68 5.21,-7.81 12.01,-14.04 20.39,-18.69 8.38,-4.64 18.57,-6.96 30.59,-6.96 12.01,0 22.19,2.32 30.59,6.96 8.37,4.65 15.17,10.88 20.39,18.69 5.21,7.82 9,16.72 11.38,26.68 2.38,9.98 3.57,20.28 3.57,30.94 0,10.18 -1.19,20.1 -3.57,29.73 -2.38,9.63 -6.18,18.31 -11.38,26 -5.22,7.7 -12.02,13.88 -20.39,18.52 -8.4,4.65 -18.58,6.97 -30.59,6.97 -12.02,0 -22.21,-2.32 -30.59,-6.97 -8.38,-4.64 -15.18,-10.82 -20.39,-18.52 -5.22,-7.69 -9.01,-16.37 -11.39,-26 -2.37,-9.63 -3.57,-19.55 -3.57,-29.73 0,-10.66 1.2,-20.96 3.57,-30.94zm652.13 -96.99l-15.13 0c-15.59,0.81 -29.68,4.03 -42.27,9.65 -14.74,6.58 -27.19,15.63 -37.39,27.19 -10.2,11.55 -18.02,25.15 -23.45,40.78 -5.44,15.63 -8.16,32.41 -8.16,50.31 0,17.45 2.72,33.87 8.16,49.27 5.43,15.41 13.25,28.78 23.45,40.11 10.2,11.32 22.65,20.27 37.39,26.84 14.72,6.57 31.49,9.87 50.29,9.87 11.78,0 23.45,-2.51 35.01,-7.49 11.56,-4.98 22.09,-13.59 31.6,-25.83l5.45 27.53 33.98 0 0 -131.19 -101.96 0 0 39.77 53.7 0c-1.59,16.99 -7.26,29.96 -17,38.92 -9.74,8.95 -23.34,13.42 -40.78,13.42 -12.01,0 -22.21,-2.32 -30.59,-6.97 -8.38,-4.64 -15.18,-10.82 -20.39,-18.52 -5.22,-7.69 -9,-16.37 -11.38,-26 -2.38,-9.63 -3.57,-19.55 -3.57,-29.73 0,-10.66 1.19,-20.96 3.57,-30.94 2.38,-9.96 6.16,-18.86 11.38,-26.68 5.21,-7.81 12.01,-14.04 20.39,-18.69 8.38,-4.64 18.58,-6.96 30.59,-6.96 12.69,0 23.62,3.4 32.79,10.19 9.19,6.8 15.36,17 18.54,30.59l50.97 0c-1.36,-13.82 -5.15,-26.05 -11.38,-36.71 -6.24,-10.65 -14,-19.59 -23.28,-26.84 -9.3,-7.26 -19.78,-12.75 -31.44,-16.49 -9.44,-3.02 -19.13,-4.82 -29.09,-5.4zm-581.74 0l-16.05 0c-15.59,0.81 -29.68,4.03 -42.28,9.65 -14.72,6.58 -27.19,15.63 -37.38,27.19 -10.2,11.55 -18.01,25.15 -23.45,40.78 -5.44,15.63 -8.15,32.41 -8.15,50.31 0,17.45 2.71,33.87 8.15,49.27 5.44,15.41 13.25,28.78 23.45,40.11 10.19,11.32 22.66,20.27 37.38,26.84 14.73,6.57 31.5,9.87 50.31,9.87 18.8,0 35.57,-3.3 50.29,-9.87 14.74,-6.57 27.19,-15.52 37.39,-26.84 10.19,-11.33 18.02,-24.7 23.45,-40.11 5.44,-15.4 8.16,-31.82 8.16,-49.27 0,-17.9 -2.72,-34.68 -8.16,-50.31 -5.43,-15.63 -13.26,-29.23 -23.45,-40.78 -10.2,-11.56 -22.65,-20.61 -37.39,-27.19 -12.59,-5.62 -26.68,-8.84 -42.27,-9.65zm191.71 47.03l58.46 0c12,0 21.12,2.67 27.35,7.99 6.24,5.33 9.36,13.89 9.36,25.66 0,12.24 -3.12,21.07 -9.36,26.51 -6.23,5.43 -15.35,8.15 -27.35,8.15l-58.46 0 0 -68.31zm-53.35 201.2l53.35 0 0 -94.81 53.36 0c13.37,0 22.99,2.94 28.9,8.83 5.88,5.89 9.73,15.18 11.54,27.87 0.69,4.76 1.2,9.8 1.53,15.12 0.34,5.32 0.79,10.53 1.37,15.63 0.56,5.1 1.24,9.98 2.03,14.62 0.79,4.65 1.99,8.89 3.57,12.74l53.37 0c-2.51,-3.4 -4.38,-7.59 -5.62,-12.57 -1.25,-4.98 -2.16,-10.14 -2.71,-15.46 -0.57,-5.32 -0.97,-10.6 -1.19,-15.81 -0.23,-5.21 -0.46,-9.74 -0.69,-13.59 -0.45,-6.12 -1.3,-12.18 -2.54,-18.18 -1.25,-6.01 -3.23,-11.61 -5.95,-16.83 -2.72,-5.21 -6.23,-9.69 -10.53,-13.42 -4.31,-3.74 -9.75,-6.51 -16.32,-8.33l0 -0.68c13.6,-5.43 23.39,-13.37 29.4,-23.79 6,-10.41 9.01,-22.77 9.01,-37.05 0,-9.06 -1.65,-17.67 -4.93,-25.82 -3.28,-8.16 -8.04,-15.3 -14.27,-21.42 -6.24,-6.11 -13.71,-10.93 -22.44,-14.44 -8.72,-3.51 -18.52,-5.27 -29.39,-5.27l-130.85 0 0 242.66 0 0zm235.89 0l53.36 0 0 -242.66 -53.36 0 0 242.66zm342.27 0l53.36 0 0 -242.66 -53.36 0 0 242.66zm92 0l49.96 0 0 -162.45 0.69 0 100.93 162.45 53.36 0 0 -242.66 -49.96 0 0 162.79 -0.67 0 -101.29 -162.79 -53.02 0 0 242.66zm336.94 -182.84l0.68 0 30.59 89.04 -62.87 0 31.6 -89.04zm-118.61 182.84l54.04 0 19.03 -54.03 90.75 0 18.35 54.03 55.39 0 -90.74 -242.66 -54.71 0 -92.11 242.66 0 0zm250.95 0l171.64 0 0 -44.86 -118.28 0 0 -197.8 -53.36 0 0 242.67 0 0 0 -0.01z"/>
  <path class="fil3" d="M2111.09 504.73l0.98 0c0,0 3.92,22.03 14.2,54.83l34.27 108.68 -98.89 0 34.76 -109.17c9.79,-30.35 14.19,-52.38 14.68,-54.34zm96.45 305.48l84.2 0 -132.67 -374.51 -90.08 0 -130.71 374.51 76.86 0 27.42 -83.22 137.56 0 27.42 83.22zm121.9 -312.33l179.66 0 -187.99 257.01 0 55.32 285.42 0 0 -62.66 -190.44 0 187.5 -256.53 0 -55.32 -274.15 0 0 62.18zm613.9 -62.18l-301.57 0 0 63.16 110.64 0 0 311.35 80.29 0 0 -311.35 110.64 0 0 -63.16zm51.4 374.51l251.15 0 0 -60.7 -170.86 0 0 -96.44 157.64 0 0 -59.73 -157.64 0 0 -96.44 166.45 0 0 -61.2 -246.74 0 0 374.51zm299.12 -186.03c0,124.35 63.64,191.91 175.75,191.91 11.75,0 20.07,-1.47 28.89,-1.47 39.65,0 60.21,16.15 84.69,61.19l70.5 -40.14c-18.12,-33.29 -37.21,-48.47 -73.93,-54.34l0 -2.45c42.59,-24.97 67.56,-82.24 67.56,-154.7 0,-123.86 -68.54,-193.86 -176.73,-193.86 -106.23,0 -176.73,69.02 -176.73,193.86zm176.73 136.1c-58.75,0 -89.59,-45.04 -89.59,-135.12 0,-90.57 34.27,-137.07 89.59,-137.07 53.85,0 90.08,46.01 90.08,137.07 0,93.02 -32.31,135.12 -90.08,135.12z"/>
 </g>
</svg>
