<svg xmlns="http://www.w3.org/2000/svg" fill-rule="evenodd" clip-rule="evenodd" image-rendering="optimizeQuality" shape-rendering="geometricPrecision" text-rendering="geometricPrecision" viewBox="0 0 24 24" height="22" width="22">
   <title>Settings</title>
   <path fill="#fa6831" d="M12 8.797c-1.768 0-3.203 1.435-3.203 3.203 0 1.769 1.435 3.203 3.203 3.203s3.203-1.435 3.203-3.203S13.768 8.797 12 8.797zm0 1.283c1.058 0 1.92.8629 1.92 1.92 0 1.058-.8629 1.92-1.92 1.92-1.059 0-1.92-.8629-1.92-1.92 0-1.058.8629-1.92 1.92-1.92z"></path>
   <path fill="#fff" d="M22 13.82v-3.645c-1.794-.6429-2.275-.6704-2.521-1.275-.2541-.6044.06655-.9724.8888-2.692l-2.578-2.578c-1.69.803-2.078 1.134-2.692.8888-.6044-.2541-.6429-.737-1.275-2.521h-3.645c-.6325 1.786-.6704 2.275-1.275 2.521-.6237.2645-1.002-.08525-2.692-.8888l-2.578 2.578c.8118 1.709 1.134 2.078.8888 2.692-.2541.6044-.737.6325-2.521 1.275v3.645c1.786.6325 2.275.6704 2.521 1.275.2546.6132-.066.9724-.8888 2.692l2.578 2.578c1.672-.7925 2.059-1.143 2.692-.8888.6044.2541.6325.737 1.275 2.521h3.645c.6325-1.775.6704-2.266 1.284-2.532.6237-.2541.9911.08525 2.683.8888l2.578-2.578c-.8118-1.709-1.134-2.078-.8888-2.692.2546-.6044.737-.6325 2.521-1.275v.0104zm-4.07.6413c-.4807 1.162-.0572 2.049.4059 2.984l-.9058.9075c-.9163-.4532-1.803-.897-2.984-.4059-1.162.4807-1.493 1.407-1.823 2.399h-1.275c-.3311-.9911-.6605-1.916-1.823-2.399-1.181-.4911-2.087-.0385-2.984.4059l-.9075-.9075c.4631-.9355.8888-1.823.4059-2.984-.4807-1.162-1.407-1.493-2.399-1.823v-1.275c.9911-.3311 1.916-.6605 2.399-1.823.4807-1.162.0572-2.049-.4059-2.984l.9075-.9064c.9058.4444 1.803.897 2.984.4059 1.162-.4807 1.492-1.407 1.823-2.399h1.275c.3311.9911.6605 1.916 1.823 2.399 1.181.4911 2.087.0385 2.984-.4059l.9058.9064c-.4631.9355-.8888 1.822-.4059 2.984.4807 1.162 1.407 1.493 2.399 1.823v1.275c-.9911.3311-1.916.6605-2.399 1.823z"></path>
</svg>