<?xml version="1.0" encoding="UTF-8" standalone="no"?>
<!-- Created with Inkscape (http://www.inkscape.org/) -->

<svg
   width="600"
   height="600"
   viewBox="0 0 158.75 158.75"
   version="1.1"
   id="svg5"
   xml:space="preserve"
   inkscape:version="1.2.2 (b0a8486541, 2022-12-01)"
   sodipodi:docname="slicer-profiles-icon.svg"
   xmlns:inkscape="http://www.inkscape.org/namespaces/inkscape"
   xmlns:sodipodi="http://sodipodi.sourceforge.net/DTD/sodipodi-0.dtd"
   xmlns="http://www.w3.org/2000/svg"
   xmlns:svg="http://www.w3.org/2000/svg"><sodipodi:namedview
     id="namedview7"
     pagecolor="#000000"
     bordercolor="#000000"
     borderopacity="0.25"
     inkscape:showpageshadow="2"
     inkscape:pageopacity="0"
     inkscape:pagecheckerboard="0"
     inkscape:deskcolor="#d1d1d1"
     inkscape:document-units="mm"
     showgrid="false"
     inkscape:zoom="1.0582793"
     inkscape:cx="287.73123"
     inkscape:cy="323.16611"
     inkscape:window-width="1920"
     inkscape:window-height="1023"
     inkscape:window-x="1920"
     inkscape:window-y="0"
     inkscape:window-maximized="1"
     inkscape:current-layer="layer1" /><defs
     id="defs2" /><g
     inkscape:label="Layer 1"
     inkscape:groupmode="layer"
     id="layer1"><g
       id="g255"
       transform="matrix(0.05830094,0,0,0.05830094,57.431538,43.866743)"><circle
         cx="400"
         cy="400"
         r="400"
         fill="#ffffff"
         id="circle240" /><path
         d="m 599.3,186.8 c -93.9,-93.9 -246.1,-93.9 -340,0 -93.9,93.9 -93.9,246.1 0,340 z"
         fill="#363636"
         id="path242" /><path
         d="m 202.7,612.5 c 93.9,93.9 246.1,93.9 340,0 93.9,-93.9 93.9,-246.1 0,-340"
         fill="#ed6b21"
         id="path244" /></g><g
       id="g515"
       transform="matrix(3.6701675,0,0,3.6701675,57.670198,-256.61401)"><path
         fill="#ffffff"
         d="M 22.76819,97.380665 V 77.699056 H -4.5702342 V 110.536 H 9.3559179 c 4.3165931,0 13.4122721,-9.91789 13.4122721,-13.155335 z M -1.8466694,107.76104 V 80.42262 H 20.044625 v 15.776121 c 0,5.652679 -8.222082,3.391609 -8.222082,3.391609 0,0 2.106908,8.17069 -3.5971615,8.17069 z"
         id="path495"
         style="clip-rule:evenodd;fill-rule:evenodd;stroke-width:5.1388;image-rendering:optimizeQuality;shape-rendering:geometricPrecision;text-rendering:geometricPrecision" /><path
         fill="#ffffff"
         d="m 16.653016,74.924103 v -2.723565 h -27.389812 v 32.836942 h 2.7235648 V 74.924103 Z"
         id="path497"
         style="clip-rule:evenodd;fill-rule:evenodd;stroke-width:5.1388;image-rendering:optimizeQuality;shape-rendering:geometricPrecision;text-rendering:geometricPrecision" /></g><path
       style="fill:#000000;stroke:#000000;stroke-width:6.81315;stroke-linecap:round;stroke-linejoin:round;stroke-dasharray:none;paint-order:markers fill stroke"
       d="m 105.64979,97.641694 c -0.20694,-0.590043 -0.56803,-1.433161 -0.74585,-1.741563 -0.28261,-0.490108 -0.94535,-1.148453 -1.39658,-1.38731 -0.64082,-0.339212 -1.07529,-0.459323 -1.76734,-0.488579 -0.79328,-0.03353 -1.3275,0.08315 -2.206396,0.481902 -0.338962,0.153786 -0.653291,0.290831 -0.698508,0.30455 -0.05103,0.01548 -0.317685,-0.211672 -0.703316,-0.599181 l -0.621112,-0.624121 0.27121,-0.597535 c 0.448193,-0.987438 0.565877,-1.441088 0.567405,-2.187253 10e-4,-0.643496 -0.117871,-1.141381 -0.424499,-1.773282 -0.438507,-0.903681 -1.184692,-1.53747 -2.350854,-1.996751 -0.271304,-0.106853 -0.598104,-0.224903 -0.726221,-0.26233 l -0.232946,-0.06806 v -0.887257 -0.887263 l 0.561803,-0.206666 c 1.448711,-0.532934 2.240362,-1.141363 2.721271,-2.091476 0.343843,-0.679303 0.448962,-1.102261 0.448962,-1.806505 0,-0.757597 -0.152509,-1.331997 -0.621902,-2.342269 l -0.22459,-0.483378 0.628303,-0.628301 0.628294,-0.628303 0.532153,0.248673 c 1.609193,0.751986 2.692983,0.813327 3.958203,0.224043 1.04797,-0.488098 1.75922,-1.391432 2.2584,-2.868304 l 0.15322,-0.453293 0.89779,0.01483 0.89778,0.01483 0.22801,0.602902 c 0.56129,1.484186 1.13359,2.185469 2.19676,2.691831 0.60008,0.285816 1.01039,0.375223 1.69909,0.370249 0.74616,-0.0053 1.18937,-0.117923 2.1181,-0.537802 l 0.67564,-0.305447 0.62206,0.622058 0.62206,0.622057 -0.27819,0.608924 c -0.43475,0.95166 -0.56758,1.457894 -0.57101,2.176415 -0.003,0.707893 0.088,1.106798 0.40213,1.753904 0.51433,1.059773 1.30078,1.675184 2.83693,2.21991 l 0.50833,0.180249 -0.0151,0.872197 -0.0151,0.872199 -0.74604,0.287833 c -1.48158,0.571614 -2.24168,1.250967 -2.70569,2.41825 -0.4584,1.153171 -0.36449,2.184583 0.33632,3.694566 l 0.24207,0.521571 -0.62768,0.627695 -0.62769,0.627692 -0.62131,-0.278469 c -0.94055,-0.421551 -1.29103,-0.51635 -2.01894,-0.546061 -0.7767,-0.03169 -1.19634,0.05539 -1.89093,0.392501 -1.04158,0.505507 -1.65683,1.287168 -2.19094,2.783547 l -0.18152,0.508553 -0.88402,0.01506 c -0.8052,0.01372 -0.88708,0.0064 -0.91815,-0.08221 z"
       id="path644"
       sodipodi:nodetypes="ssssssscscssscccsssscccssscccsscscccscsscccssscccsssscsss" /><g
       style="clip-rule:evenodd;fill-rule:evenodd;image-rendering:optimizeQuality;shape-rendering:geometricPrecision;text-rendering:geometricPrecision"
       id="g573"
       transform="matrix(1.1900224,0,0,1.1900224,92.296499,71.520292)"><path
         fill="#fa6831"
         d="m 12,8.797 c -1.768,0 -3.203,1.435 -3.203,3.203 0,1.769 1.435,3.203 3.203,3.203 1.768,0 3.203,-1.435 3.203,-3.203 0,-1.768 -1.435,-3.203 -3.203,-3.203 z m 0,1.283 c 1.058,0 1.92,0.8629 1.92,1.92 0,1.058 -0.8629,1.92 -1.92,1.92 -1.059,0 -1.92,-0.8629 -1.92,-1.92 0,-1.058 0.8629,-1.92 1.92,-1.92 z"
         id="path561" /><path
         fill="#ffffff"
         d="M 22,13.82 V 10.175 C 20.206,9.5321 19.725,9.5046 19.479,8.9 19.2249,8.2956 19.54555,7.9276 20.3678,6.208 L 17.7898,3.63 c -1.69,0.803 -2.078,1.134 -2.692,0.8888 -0.6044,-0.2541 -0.6429,-0.737 -1.275,-2.521 h -3.645 C 9.5453,3.7838 9.5074,4.2728 8.9028,4.5188 8.2791,4.7833 7.9008,4.43355 6.2108,3.63 L 3.6328,6.208 C 4.4446,7.917 4.7668,8.286 4.5216,8.9 4.2675,9.5044 3.7846,9.5325 2.0006,10.175 v 3.645 c 1.786,0.6325 2.275,0.6704 2.521,1.275 0.2546,0.6132 -0.066,0.9724 -0.8888,2.692 l 2.578,2.578 c 1.672,-0.7925 2.059,-1.143 2.692,-0.8888 0.6044,0.2541 0.6325,0.737 1.275,2.521 h 3.645 c 0.6325,-1.775 0.6704,-2.266 1.284,-2.532 0.6237,-0.2541 0.9911,0.08525 2.683,0.8888 l 2.578,-2.578 C 19.556,16.067 19.2338,15.698 19.479,15.084 19.7336,14.4796 20.216,14.4515 22,13.809 v 0.0104 z m -4.07,0.6413 c -0.4807,1.162 -0.0572,2.049 0.4059,2.984 l -0.9058,0.9075 c -0.9163,-0.4532 -1.803,-0.897 -2.984,-0.4059 -1.162,0.4807 -1.493,1.407 -1.823,2.399 h -1.275 c -0.3311,-0.9911 -0.6605,-1.916 -1.823,-2.399 -1.181,-0.4911 -2.087,-0.0385 -2.984,0.4059 L 5.6336,17.4453 c 0.4631,-0.9355 0.8888,-1.823 0.4059,-2.984 -0.4807,-1.162 -1.407,-1.493 -2.399,-1.823 v -1.275 c 0.9911,-0.3311 1.916,-0.6605 2.399,-1.823 0.4807,-1.162 0.0572,-2.049 -0.4059,-2.984 L 6.5411,5.6499 c 0.9058,0.4444 1.803,0.897 2.984,0.4059 1.162,-0.4807 1.492,-1.407 1.823,-2.399 h 1.275 c 0.3311,0.9911 0.6605,1.916 1.823,2.399 1.181,0.4911 2.087,0.0385 2.984,-0.4059 l 0.9058,0.9064 c -0.4631,0.9355 -0.8888,1.822 -0.4059,2.984 0.4807,1.162 1.407,1.493 2.399,1.823 v 1.275 c -0.9911,0.3311 -1.916,0.6605 -2.399,1.823 z"
         id="path563" /></g></g></svg>
