<!DOCTYPE svg PUBLIC "-//W3C//DTD SVG 1.1//EN" "http://www.w3.org/Graphics/SVG/1.1/DTD/svg11.dtd">
<svg xmlns="http://www.w3.org/2000/svg" xml:space="preserve" width="75" height="56" fill-rule="evenodd" clip-rule="evenodd" image-rendering="optimizeQuality" shape-rendering="geometricPrecision" text-rendering="geometricPrecision" viewBox="0 0 3.85 2.89">
  <path fill="#fa6831" d="M1.66 2.78a.368.368 0 0 1 0-.53c.1-.1.24-.13.37-.1l.77-.51-.51.77c.03.13 0 .27-.1.37-.14.15-.38.15-.53 0z"/>
  <path fill="#fff" d="M3.85 1.93c0 .35-.09.68-.26.96l-.27-.16c.13-.24.21-.51.21-.8 0-.89-.72-1.61-1.6-1.61-.89 0-1.61.72-1.61 1.61 0 .29.08.56.22.8l-.28.16C.09 2.61 0 2.28 0 1.93a1.925 1.925 0 1 1 3.85 0z"/>
</svg>
