<svg xmlns="http://www.w3.org/2000/svg" width="24" height="24" fill-rule="evenodd" clip-rule="evenodd" image-rendering="optimizeQuality" shape-rendering="geometricPrecision" text-rendering="geometricPrecision" viewBox="0 0 307.66 307.66">
    <path fill="#fa6831" d="M153.83 269.21c-16.59,0 -30.03,-13.44 -30.03,-30.03 0,-11.32 6.27,-21.18 15.51,-26.29l14.52 -71.87 14.53 71.85c9.25,5.12 15.51,14.97 15.51,26.29 0,16.6 -13.44,30.05 -30.04,30.05l0 0z"></path>
    <path fill="#fff" d="M307.66 192.29c0,28 -7.51,54.27 -20.64,76.9l-22.25 -12.86c10.91,-18.86 17.25,-40.69 17.25,-64.05 0,-70.8 -57.39,-128.19 -128.19,-128.19 -70.8,0 -128.19,57.39 -128.19,128.19 0,23.36 6.35,45.19 17.25,64.05l-22.25 12.86c-13.13,-22.64 -20.64,-48.91 -20.64,-76.9 0,-84.82 69.01,-153.83 153.83,-153.83 84.82,0 153.83,69.01 153.83,153.83l-0 0z"></path>
</svg>