<!DOCTYPE svg PUBLIC "-//W3C//DTD SVG 1.1//EN" "http://www.w3.org/Graphics/SVG/1.1/DTD/svg11.dtd">
<svg xmlns="http://www.w3.org/2000/svg" xml:space="preserve" width="56" height="56" fill-rule="evenodd" clip-rule="evenodd" image-rendering="optimizeQuality" shape-rendering="geometricPrecision" text-rendering="geometricPrecision" viewBox="0 0 16.59 16.73">
  <path fill="#e6e6e6" fill-rule="nonzero" d="M2.06 0h12.47c1.13 0 2.06.93 2.06 2.06v12.61c0 1.13-.92 2.06-2.06 2.06H2.06A2.07 2.07 0 0 1 0 14.67V2.06C0 .93.93 0 2.06 0zm12.47 1.75H2.06c-.17 0-.31.14-.31.31v12.61c0 .17.14.31.31.31h12.47c.17 0 .31-.14.31-.31V2.06c0-.17-.13-.31-.31-.31z"/>
</svg>
