<?xml version="1.0" encoding="UTF-8" standalone="no"?>
<!-- Created with Inkscape (http://www.inkscape.org/) -->

<svg
   width="600"
   height="450"
   viewBox="0 0 158.75 119.0625"
   version="1.1"
   id="svg1"
   xml:space="preserve"
   inkscape:version="1.3.2 (091e20e, 2023-11-25, custom)"
   sodipodi:docname="success_combined.svg"
   xmlns:inkscape="http://www.inkscape.org/namespaces/inkscape"
   xmlns:sodipodi="http://sodipodi.sourceforge.net/DTD/sodipodi-0.dtd"
   xmlns="http://www.w3.org/2000/svg"
   xmlns:svg="http://www.w3.org/2000/svg"><sodipodi:namedview
     id="namedview1"
     pagecolor="#505050"
     bordercolor="#eeeeee"
     borderopacity="1"
     inkscape:showpageshadow="0"
     inkscape:pageopacity="0"
     inkscape:pagecheckerboard="0"
     inkscape:deskcolor="#505050"
     inkscape:document-units="mm"
     inkscape:zoom="1.0440797"
     inkscape:cx="292.12329"
     inkscape:cy="255.7276"
     inkscape:window-width="1920"
     inkscape:window-height="1009"
     inkscape:window-x="2248"
     inkscape:window-y="-8"
     inkscape:window-maximized="1"
     inkscape:current-layer="layer1" /><defs
     id="defs1" /><g
     inkscape:label="Vrstva 1"
     inkscape:groupmode="layer"
     id="layer1"><path
       style="fill:#fa6831;fill-opacity:1;stroke:#ffffff;stroke-width:2.06394;stroke-linecap:butt;stroke-linejoin:miter;stroke-dasharray:none;stroke-opacity:1;paint-order:normal"
       d="m 76.054829,110.23901 c -4.809321,-0.47814 -11.39852,-2.14015 -15.793782,-3.9837 C 51.856656,102.73017 44.058759,96.346903 38.745821,88.643223 34.561847,82.576516 32.474976,77.722997 30.872133,70.331077 29.193384,62.5891 29.195153,56.747747 30.878533,49.077449 32.631152,41.091834 35.29361,35.272427 40.124269,28.868781 45.27705,22.038121 53.395577,15.85825 61.307585,12.743913 c 2.17412,-0.85578 7.531554,-2.337665 10.528069,-2.9120999 6.053947,-1.1605449 12.472133,-1.0599927 18.49808,0.2898069 5.491508,1.230087 9.349521,2.55654 13.217456,4.544396 7.12974,3.664195 13.49781,9.155634 17.92696,15.459138 2.50129,3.559802 3.46831,5.181129 4.80542,8.056956 1.45071,3.1202 2.32987,5.675704 3.13184,9.103556 1.46495,6.261669 1.71939,8.496213 1.57717,13.850746 -0.11204,4.218581 -0.44737,6.442379 -1.80716,11.984852 -1.64118,6.689342 -5.00817,13.119223 -10.18725,19.454398 -4.60572,5.633824 -12.54672,11.353198 -19.633285,14.140528 -2.222973,0.87437 -7.605359,2.35568 -10.633052,2.92638 -4.124031,0.77736 -8.694452,0.99241 -12.677042,0.59644 z m 8.124384,-6.90098 c 14.597222,-1.30869 27.424917,-9.470236 34.742657,-22.104817 2.79047,-4.817927 4.77291,-10.932856 5.45671,-16.831386 0.25615,-2.209465 0.25615,-7.134645 0,-9.34411 -0.68557,-5.913799 -2.58753,-11.794143 -5.43714,-16.810111 -2.23903,-3.941181 -6.21193,-8.743856 -9.6816,-11.703679 C 102.99187,21.197009 95.261459,17.699648 86.806017,16.385443 84.01003,15.950871 77.187476,15.888177 74.62768,16.273532 c -7.829377,1.178647 -14.060593,3.627956 -20.012928,7.866497 -9.864875,7.024584 -16.115125,17.119264 -18.078534,29.198349 -0.50054,3.079374 -0.45342,10.154223 0.08852,13.290042 1.486711,8.602619 5.001753,15.882796 10.731807,22.227171 8.349484,9.244636 19.859418,14.432319 32.541225,14.666769 1.014712,0.0187 2.941363,-0.0642 4.281448,-0.18433 z M 67.042597,72.540691 56.421003,61.213593 58.48374,59.096086 c 1.134506,-1.164627 2.748752,-2.817059 3.587214,-3.672069 l 1.524477,-1.554565 6.562701,6.896695 c 3.609484,3.793182 6.71339,7.044134 6.897568,7.224338 0.312795,0.306047 0.431951,0.228392 1.807722,-1.178097 2.127305,-2.174806 18.790548,-19.361344 21.255588,-21.923094 l 2.08609,-2.167936 3.78081,3.877348 3.78081,3.877348 -2.44173,2.553365 c -1.34295,1.40435 -5.39561,5.609292 -9.005896,9.344317 -3.610287,3.735023 -8.136288,8.434452 -10.057786,10.443176 -1.921498,2.008724 -3.724313,3.880489 -4.006252,4.159479 -0.281942,0.278989 -1.880226,1.943686 -3.551743,3.699326 l -3.039122,3.192075 z"
       id="path1" /></g></svg>
