<?xml version="1.0" encoding="UTF-8" standalone="no"?>
<!-- Uploaded to: SVG Repo, www.svgrepo.com, Generator: SVG Repo Mixer Tools -->

<svg
   fill="#000000"
   width="800px"
   height="800px"
   viewBox="0 0 32 32"
   version="1.1"
   id="svg7075"
   sodipodi:docname="unpacking-usb.svg"
   inkscape:version="1.2.2 (b0a8486541, 2022-12-01)"
   xml:space="preserve"
   xmlns:inkscape="http://www.inkscape.org/namespaces/inkscape"
   xmlns:sodipodi="http://sodipodi.sourceforge.net/DTD/sodipodi-0.dtd"
   xmlns="http://www.w3.org/2000/svg"
   xmlns:svg="http://www.w3.org/2000/svg"
   xmlns:rdf="http://www.w3.org/1999/02/22-rdf-syntax-ns#"
   xmlns:cc="http://creativecommons.org/ns#"
   xmlns:dc="http://purl.org/dc/elements/1.1/"><defs
     id="defs7079" /><sodipodi:namedview
     id="namedview7077"
     pagecolor="#000000"
     bordercolor="#000000"
     borderopacity="0.25"
     inkscape:showpageshadow="2"
     inkscape:pageopacity="0"
     inkscape:pagecheckerboard="0"
     inkscape:deskcolor="#d1d1d1"
     showgrid="false"
     inkscape:zoom="0.525"
     inkscape:cx="202.85714"
     inkscape:cy="367.61905"
     inkscape:window-width="1920"
     inkscape:window-height="1019"
     inkscape:window-x="0"
     inkscape:window-y="567"
     inkscape:window-maximized="1"
     inkscape:current-layer="svg7075" /><title
     id="title7071">box</title><path
     d="M1.735 17.832l12.054 6.081 2.152-6.081-12.053-5.758-2.153 5.758zM16.211 17.832l2.045 6.027 12.484-6.081-2.422-5.704-12.107 5.758zM-0.247 7.212l4.144 4.843 12.053-6.134-3.928-5.005-12.269 6.296zM32.247 7.319l-12.001-6.403-4.090 5.005 12.162 6.134 3.929-4.736zM3.175 19.353l-0.041 5.839 12.713 5.893v-10.98l-1.816 4.736-10.856-5.488zM16.291 20.105v10.979l12.674-5.893v-5.799l-10.99 5.46-1.684-4.747z"
     id="path7073"
     style="fill:#ffffff" /><metadata
     id="metadata11417"><rdf:RDF><cc:Work
         rdf:about=""><dc:title>box</dc:title></cc:Work></rdf:RDF></metadata><path
     d="m 14.335503,14.630907 h 3.456541 V 8.5819579 L 20.81652,11.606432 22.907728,9.5152239 16.063774,2.6712712 9.2198214,9.5152239 11.311028,11.606432 14.335503,8.5819579 Z"
     id="path2"
     style="fill:#fa6831;fill-opacity:1;stroke:#000000;stroke-width:0.864111;stroke-linejoin:miter;stroke-dasharray:none"
     sodipodi:nodetypes="cccccccccc" /><path
     style="fill:#fa6831;fill-opacity:1;stroke:#000000;stroke-width:0.429654;stroke-miterlimit:4;stroke-dasharray:none;stroke-opacity:1;paint-order:markers stroke fill"
     d="m 22.433225,26.905693 1.15706,0.568025 0.757367,-1.542747 -1.15706,-0.568024 z m 0.480358,-0.0035 0.189342,-0.385687 0.385686,0.189341 -0.18934,0.385687 z m 0.378683,-0.771374 0.189341,-0.385686 0.385688,0.189341 -0.189343,0.385688 z m 0.589036,1.725085 2.699805,1.32539 c 0.213671,0.104894 0.470134,0.01732 0.575029,-0.196346 l 0.568023,-1.15706 c 0.104896,-0.21367 0.01733,-0.470132 -0.196345,-0.575028 l -2.699805,-1.32539 z"
     id="rect814"
     inkscape:connector-curvature="0" /></svg>
