<?xml version="1.0" encoding="UTF-8" standalone="no"?>
<!-- Uploaded to: SVG Repo, www.svgrepo.com, Generator: SVG Repo Mixer Tools -->

<svg
   fill="#000000"
   width="800px"
   height="800px"
   viewBox="0 0 32 32"
   version="1.1"
   id="svg7075"
   sodipodi:docname="unpacking-usb.svg"
   inkscape:version="1.2.2 (b0a8486541, 2022-12-01)"
   xml:space="preserve"
   xmlns:inkscape="http://www.inkscape.org/namespaces/inkscape"
   xmlns:sodipodi="http://sodipodi.sourceforge.net/DTD/sodipodi-0.dtd"
   xmlns="http://www.w3.org/2000/svg"
   xmlns:svg="http://www.w3.org/2000/svg"
   xmlns:rdf="http://www.w3.org/1999/02/22-rdf-syntax-ns#"
   xmlns:cc="http://creativecommons.org/ns#"
   xmlns:dc="http://purl.org/dc/elements/1.1/"><defs
     id="defs7079" /><sodipodi:namedview
     id="namedview7077"
     pagecolor="#000000"
     bordercolor="#000000"
     borderopacity="0.25"
     inkscape:showpageshadow="2"
     inkscape:pageopacity="0"
     inkscape:pagecheckerboard="0"
     inkscape:deskcolor="#d1d1d1"
     showgrid="false"
     inkscape:zoom="0.525"
     inkscape:cx="206.66667"
     inkscape:cy="367.61905"
     inkscape:window-width="1920"
     inkscape:window-height="1019"
     inkscape:window-x="0"
     inkscape:window-y="567"
     inkscape:window-maximized="1"
     inkscape:current-layer="svg7075" /><title
     id="title7071">box</title><path
     d="m 9.4860759,12.864535 8.6880021,4.382922 1.551069,-4.382922 -8.687282,-4.1501183 z m 10.4336751,0 1.473947,4.344001 8.997928,-4.382922 -1.745673,-4.1111973 z M 8.0575359,5.2100976 11.044352,8.7007229 19.731634,4.2796005 16.900501,0.6722128 Z M 31.477807,5.2872185 22.828005,0.6722128 19.88011,4.2796005 28.645953,8.7007229 Z m -20.953841,8.6735875 -0.02955,4.208499 9.16298,4.24742 v -7.91391 l -1.308894,3.413504 z m 9.453445,0.542009 v 7.913189 l 9.134872,-4.24742 v -4.179668 l -7.921117,3.935332 z"
     id="path7073"
     style="fill:#ffffff;stroke-width:0.720757" /><metadata
     id="metadata11417"><rdf:RDF><cc:Work
         rdf:about=""><dc:title>box</dc:title></cc:Work></rdf:RDF></metadata><path
     d="M 18.567974,10.557326 H 21.0593 V 6.197504 l 2.179911,2.1799103 1.507253,-1.5072525 -4.932827,-4.9328253 -4.932826,4.9328253 1.507252,1.5072525 2.179911,-2.1799103 z"
     id="path2"
     style="fill:#fa6831;fill-opacity:1;stroke:#000000;stroke-width:0.622813;stroke-linejoin:miter;stroke-dasharray:none"
     sodipodi:nodetypes="cccccccccc" /><path
     style="fill:#ffffff;fill-opacity:1;stroke:#000000;stroke-width:1.24688;stroke-miterlimit:4;stroke-dasharray:none;stroke-opacity:1;paint-order:markers stroke fill"
     d="M 1.5892687,23.727016 4.9471176,25.375455 7.145036,20.898321 3.7871883,19.249885 Z m 1.3940242,-0.01014 0.5494799,-1.119284 1.1192817,0.549477 -0.5494749,1.119284 z m 1.0989573,-2.238567 0.5494787,-1.119282 1.1192866,0.549477 -0.5494836,1.119288 z m 1.7094142,5.006287 7.8349756,3.846352 c 0.620085,0.304406 1.364354,0.05026 1.668764,-0.569808 l 1.648432,-3.357848 c 0.304415,-0.620083 0.05029,-1.364349 -0.569802,-1.668763 L 8.5390577,20.88818 Z"
     id="rect814"
     inkscape:connector-curvature="0" /></svg>
