<?xml version="1.0" encoding="UTF-8" standalone="no"?>
<!-- Created with Inkscape (http://www.inkscape.org/) -->

<svg
   width="600"
   height="600"
   viewBox="0 0 158.75 158.75"
   version="1.1"
   id="svg5"
   xml:space="preserve"
   inkscape:version="1.2.2 (b0a8486541, 2022-12-01)"
   sodipodi:docname="update-available-usb.svg"
   xmlns:inkscape="http://www.inkscape.org/namespaces/inkscape"
   xmlns:sodipodi="http://sodipodi.sourceforge.net/DTD/sodipodi-0.dtd"
   xmlns="http://www.w3.org/2000/svg"
   xmlns:svg="http://www.w3.org/2000/svg"><sodipodi:namedview
     id="namedview7"
     pagecolor="#000000"
     bordercolor="#000000"
     borderopacity="0.25"
     inkscape:showpageshadow="2"
     inkscape:pageopacity="0"
     inkscape:pagecheckerboard="0"
     inkscape:deskcolor="#d1d1d1"
     inkscape:document-units="mm"
     showgrid="false"
     inkscape:zoom="0.7483165"
     inkscape:cx="400.23172"
     inkscape:cy="347.44657"
     inkscape:window-width="1920"
     inkscape:window-height="1019"
     inkscape:window-x="0"
     inkscape:window-y="567"
     inkscape:window-maximized="1"
     inkscape:current-layer="layer1" /><defs
     id="defs2" /><g
     inkscape:label="Layer 1"
     inkscape:groupmode="layer"
     id="layer1"><path
       style="fill:#fa6831;fill-opacity:1;stroke:none;stroke-width:11.0386;stroke-miterlimit:4;stroke-dasharray:none;stroke-opacity:1"
       d="M 10.366953,63.725937 40.093918,78.319515 59.55205,38.683534 29.825077,24.089956 Z m 12.341247,-0.08998 4.864561,-9.908993 9.908968,4.864523 -4.864503,9.908993 z m 9.729067,-19.817978 4.864503,-9.908993 9.909026,4.864525 -4.864558,9.909001 z m 15.133394,44.320548 69.362899,34.051693 c 5.48961,2.69492 12.07861,0.44507 14.77354,-5.04449 l 14.59356,-29.726961 c 2.69498,-5.489587 0.44516,-12.078565 -5.04447,-14.773527 L 71.893302,38.593576 Z"
       id="rect814"
       inkscape:connector-curvature="0" /><path
       d="m 72.11788,75.379122 h 15.457417 v 47.391598 l 13.525253,-13.52522 9.35174,9.35172 -30.605692,30.6057 -30.605702,-30.6057 9.351733,-9.35172 13.525251,13.52522 z"
       id="path2"
       style="fill:#ffffff;stroke:#000000;stroke-width:3.86435;fill-opacity:1"
       sodipodi:nodetypes="cccccccccc" /></g></svg>
