<?xml version="1.0" encoding="UTF-8" standalone="no"?>
<!-- Created with Inkscape (http://www.inkscape.org/) -->

<svg
   width="500"
   height="500"
   viewBox="0 0 132.29166 132.29167"
   version="1.1"
   id="svg6905"
   inkscape:version="1.2.2 (b0a8486541, 2022-12-01)"
   sodipodi:docname="warning-big.svg"
   xmlns:inkscape="http://www.inkscape.org/namespaces/inkscape"
   xmlns:sodipodi="http://sodipodi.sourceforge.net/DTD/sodipodi-0.dtd"
   xmlns="http://www.w3.org/2000/svg"
   xmlns:svg="http://www.w3.org/2000/svg">
  <sodipodi:namedview
     id="namedview6907"
     pagecolor="#000000"
     bordercolor="#000000"
     borderopacity="0.25"
     inkscape:showpageshadow="2"
     inkscape:pageopacity="0"
     inkscape:pagecheckerboard="0"
     inkscape:deskcolor="#d1d1d1"
     inkscape:document-units="mm"
     showgrid="false"
     inkscape:zoom="0.98520767"
     inkscape:cx="212.64552"
     inkscape:cy="167.98489"
     inkscape:window-width="1920"
     inkscape:window-height="1004"
     inkscape:window-x="0"
     inkscape:window-y="0"
     inkscape:window-maximized="1"
     inkscape:current-layer="layer1" />
  <defs
     id="defs6902" />
  <g
     inkscape:label="Layer 1"
     inkscape:groupmode="layer"
     id="layer1">
    <path
       style="fill:#808000;stroke:#ffff00;stroke-width:10;stroke-linecap:round;stroke-linejoin:round;stroke-dasharray:none"
       d="m 66.81377,12.688217 c -14.039903,0.06391 -55.589332,86.238149 -49.252732,95.980403 6.378862,9.80723 94.243152,8.54247 99.476882,-0.0514 C 123.56124,97.90583 78.772552,12.633782 66.81377,12.688217 Z"
       id="path7443"
       sodipodi:nodetypes="ssss" />
    <g
       aria-label="!"
       id="text7862"
       style="font-size:80.9188px;font-family:'DejaVu Math TeX Gyre';-inkscape-font-specification:'DejaVu Math TeX Gyre';stroke:#ffff00;stroke-width:0;stroke-linecap:round;stroke-linejoin:round">
      <path
         d="m 70.902053,40.963396 -2.67032,32.448439 v 9.953012 H 63.376605 V 73.411835 L 60.706284,40.963396 Z m -1.37562,51.140682 q 1.537458,1.537457 1.537458,3.722264 0,2.184808 -1.537458,3.722265 -1.537457,1.537453 -3.722264,1.537453 -2.265727,0 -3.803184,-1.537453 -1.456538,-1.537457 -1.456538,-3.722265 0,-2.184807 1.456538,-3.722264 1.537457,-1.537458 3.803184,-1.537458 2.184807,0 3.722264,1.537458 z"
         style="stroke:none"
         id="path9415" />
    </g>
  </g>
</svg>
