<?xml version="1.0" encoding="UTF-8" standalone="no"?>
<svg
   width="64"
   height="64"
   fill-rule="evenodd"
   clip-rule="evenodd"
   image-rendering="optimizeQuality"
   shape-rendering="geometricPrecision"
   text-rendering="geometricPrecision"
   viewBox="0 0 235.29 235.29"
   version="1.1"
   id="svg3"
   sodipodi:docname="wifi_settings.svg"
   xml:space="preserve"
   inkscape:version="1.3.2 (091e20e, 2023-11-25, custom)"
   xmlns:inkscape="http://www.inkscape.org/namespaces/inkscape"
   xmlns:sodipodi="http://sodipodi.sourceforge.net/DTD/sodipodi-0.dtd"
   xmlns="http://www.w3.org/2000/svg"
   xmlns:svg="http://www.w3.org/2000/svg"><defs
     id="defs3" /><sodipodi:namedview
     id="namedview3"
     pagecolor="#505050"
     bordercolor="#eeeeee"
     borderopacity="1"
     inkscape:showpageshadow="0"
     inkscape:pageopacity="0"
     inkscape:pagecheckerboard="0"
     inkscape:deskcolor="#505050"
     inkscape:zoom="8"
     inkscape:cx="41.0625"
     inkscape:cy="33.75"
     inkscape:window-width="1920"
     inkscape:window-height="1009"
     inkscape:window-x="2248"
     inkscape:window-y="-8"
     inkscape:window-maximized="1"
     inkscape:current-layer="svg3" /><path
     fill="#fff"
     d="m 31.529717,113.42514 c 22.446246,-23.92028 53.60604,-38.641883 87.947123,-38.641883 34.34107,0 65.37959,14.721603 87.94711,38.641883 L 229.25447,90.241873 C 201.16401,60.434825 162.40085,42.037486 119.47684,42.037486 c -42.93335,0 -81.687176,18.397339 -109.7776364,48.204387 z"
     id="path1"
     style="display:inline;fill:#fa6831;fill-opacity:1;stroke:#ffffff;stroke-width:0;stroke-dasharray:none;stroke-opacity:1" /><path
     id="path2"
     style="display:inline;fill:#fa6831;fill-opacity:1;stroke:#ffffff;stroke-width:0;stroke-linejoin:round;stroke-dasharray:none;stroke-opacity:1"
     d="m 119.60527,98.83214 c -28.090437,0 -53.481441,12.02492 -71.869433,31.64438 l 21.218322,22.43182 c 12.984747,-13.65929 30.83909,-22.06562 50.521861,-22.06562 6.42446,0 12.64736,0.91096 18.57591,2.59216 0.30611,-0.33061 0.62446,-0.64979 0.92628,-0.98373 0.8063,-0.85028 1.66493,-1.64828 2.45572,-2.51317 0.81455,-0.79007 1.55197,-1.65545 2.24031,-2.55625 0.82997,-1.14838 1.85272,-2.1264 2.82911,-3.14505 0.12946,-0.13388 0.26809,-0.2522 0.40211,-0.38056 0.25266,-1.57696 1.59768,-3.62817 2.75012,-6.17522 0.0562,-0.12423 1.44794,-0.13143 1.68742,-0.13643 1.71361,0.002 3.25696,0.59396 4.73193,1.41456 1.87075,1.16605 3.08793,2.93868 4.16468,4.81092 0.9956,1.83387 1.61154,3.82734 2.10388,5.84491 0.14162,0.5142 0.2322,1.03132 0.28722,1.54381 0.14544,0.0834 0.29827,0.15108 0.43801,0.24413 0.10082,0.0671 0.19027,0.15006 0.28722,0.2226 2.16531,-0.52294 4.38173,-0.75105 6.59886,-0.91192 1.65834,-0.11468 3.32165,-0.14894 4.98326,-0.17234 1.61813,-0.0658 3.21958,-0.0162 4.8181,0.24414 0.47043,0.15947 0.97011,0.25929 1.41456,0.48109 2.78057,1.3876 3.50089,3.50655 3.61178,6.2901 l 6.69939,-7.07995 C 173.08456,110.96902 147.68637,98.83214 119.60527,98.83214 Z m -50.651111,54.0762 c -0.0444,0.0467 -0.09215,0.0896 -0.13643,0.13643 h 0.02154 0.244136 z" /><path
     id="path3"
     style="display:inline;fill:#fa6831;fill-opacity:1;stroke:#ffffff;stroke-width:0;stroke-dasharray:none;stroke-opacity:1"
     d="m 119.07392,154.76809 c -13.37915,0.0796 -25.535064,5.82562 -34.308342,15.20107 l 34.588372,36.79279 10.89997,-11.59648 c -1.11581,0.19279 -2.26382,0.19055 -3.47535,0.0646 -1.53414,-0.39732 -3.23502,-0.64092 -4.62423,-1.46482 -0.4892,-0.29013 -0.92946,-0.65417 -1.39301,-0.98373 -0.45047,-0.65358 -1.01199,-1.24919 -1.34993,-1.96745 -0.26125,-0.55528 -0.39197,-1.17476 -0.41647,-1.78794 -0.0857,-2.14372 0.88536,-3.66675 2.24749,-5.15558 0.97597,-0.93703 2.06863,-1.71831 3.20968,-2.42701 -0.17548,-0.0571 -0.3503,-0.11415 -0.52418,-0.17951 -1.88948,-0.82162 -3.58923,-1.93227 -4.89709,-3.55434 -1.4165,-1.92601 -2.04422,-3.56075 -1.8382,-5.69412 -1.9561,-0.8844 -3.48068,-2.46634 -3.87028,-4.69603 -0.006,-0.0354 -0.002,-0.0721 -0.007,-0.10771 -0.47355,-0.21308 -0.94341,-0.44743 -1.40019,-0.70369 -1.68867,-1.13936 -3.04336,-2.72259 -2.65678,-5.10532 0.41001,-2.52708 1.96956,-3.47965 3.94208,-4.20058 1.33633,-0.3919 2.64803,-0.87393 3.97081,-1.30685 0.41519,-0.15577 0.83326,-0.29261 1.25658,-0.41647 0.20192,-0.24879 0.43013,-0.47424 0.64625,-0.71086 z m 7.14457,18.5041 c -6e-5,0.0152 -0.008,0.0276 -0.007,0.0431 0.0168,-0.0103 0.0225,-0.0291 0.0359,-0.0431 -0.009,-0.002 -0.0195,0.002 -0.0287,0 z m -0.0933,12.20681 c -0.0246,-0.0116 0.0251,0.0544 0.0503,0.0646 0.0612,0.0248 0.12478,0.0419 0.18669,0.0646 -0.079,-0.0425 -0.15587,-0.0909 -0.23695,-0.12925 z" /><g
     id="g20"
     inkscape:label="zaloha"
     style="display:none"><path
       fill="#fff"
       d="m 31.529717,113.42514 c 22.446246,-23.92028 53.60604,-38.641883 87.947123,-38.641883 34.34107,0 65.37959,14.721603 87.94711,38.641883 L 229.25447,90.241873 C 201.16401,60.434825 162.40085,42.037486 119.47684,42.037486 c -42.93335,0 -81.687176,18.397339 -109.7776364,48.204387 z"
       id="path18"
       style="fill:#fa6831;fill-opacity:1;stroke:#ffffff;stroke-width:0;stroke-dasharray:none;stroke-opacity:1" /><path
       fill="#fff"
       d="M 68.818847,153.04659 C 81.814533,139.30456 99.72675,130.8429 119.47684,130.8429 c 19.75008,0 37.65297,8.46166 50.65798,22.20369 l 21.34539,-22.56753 c -18.39734,-19.50752 -43.79163,-31.644921 -71.87276,-31.644921 -28.090466,0 -53.484765,12.025441 -71.872775,31.644921 l 21.345392,22.56753 v 0 h -0.242561 z"
       id="path19"
       style="fill:#fa6831;fill-opacity:1;stroke:#ffffff;stroke-width:0;stroke-linejoin:round;stroke-dasharray:none;stroke-opacity:1" /><path
       fill="#fff"
       d="m 84.762585,169.9699 c 8.834828,-9.44123 21.102835,-15.20673 34.592965,-15.20673 13.49014,0 25.75815,5.7655 34.58364,15.20673 l -34.58364,36.79468 z"
       id="path20"
       style="fill:#fa6831;fill-opacity:1;stroke:#ffffff;stroke-width:0;stroke-dasharray:none;stroke-opacity:1" /></g><g
     style="clip-rule:evenodd;display:inline;fill-rule:evenodd;image-rendering:optimizeQuality;shape-rendering:geometricPrecision;text-rendering:geometricPrecision"
     id="g9"
     transform="matrix(4.9555369,0,0,4.9555369,93.102933,102.5376)"><path
       fill="#fa6831"
       d="m 12,8.797 c -1.768,0 -3.203,1.435 -3.203,3.203 0,1.769 1.435,3.203 3.203,3.203 1.768,0 3.203,-1.435 3.203,-3.203 0,-1.768 -1.435,-3.203 -3.203,-3.203 z m 0,1.283 c 1.058,0 1.92,0.8629 1.92,1.92 0,1.058 -0.8629,1.92 -1.92,1.92 -1.059,0 -1.92,-0.8629 -1.92,-1.92 0,-1.058 0.8629,-1.92 1.92,-1.92 z"
       id="path1-0" /><path
       fill="#ffffff"
       d="M 22,13.82 V 10.175 C 20.206,9.5321 19.725,9.5046 19.479,8.9 19.2249,8.2956 19.54555,7.9276 20.3678,6.208 L 17.7898,3.63 c -1.69,0.803 -2.078,1.134 -2.692,0.8888 -0.6044,-0.2541 -0.6429,-0.737 -1.275,-2.521 h -3.645 C 9.5453,3.7838 9.5074,4.2728 8.9028,4.5188 8.2791,4.7833 7.9008,4.43355 6.2108,3.63 L 3.6328,6.208 C 4.4446,7.917 4.7668,8.286 4.5216,8.9 4.2675,9.5044 3.7846,9.5325 2.0006,10.175 v 3.645 c 1.786,0.6325 2.275,0.6704 2.521,1.275 0.2546,0.6132 -0.066,0.9724 -0.8888,2.692 l 2.578,2.578 c 1.672,-0.7925 2.059,-1.143 2.692,-0.8888 0.6044,0.2541 0.6325,0.737 1.275,2.521 h 3.645 c 0.6325,-1.775 0.6704,-2.266 1.284,-2.532 0.6237,-0.2541 0.9911,0.08525 2.683,0.8888 l 2.578,-2.578 C 19.556,16.067 19.2338,15.698 19.479,15.084 19.7336,14.4796 20.216,14.4515 22,13.809 v 0.0104 z m -4.07,0.6413 c -0.4807,1.162 -0.0572,2.049 0.4059,2.984 l -0.9058,0.9075 c -0.9163,-0.4532 -1.803,-0.897 -2.984,-0.4059 -1.162,0.4807 -1.493,1.407 -1.823,2.399 h -1.275 c -0.3311,-0.9911 -0.6605,-1.916 -1.823,-2.399 -1.181,-0.4911 -2.087,-0.0385 -2.984,0.4059 L 5.6336,17.4453 c 0.4631,-0.9355 0.8888,-1.823 0.4059,-2.984 -0.4807,-1.162 -1.407,-1.493 -2.399,-1.823 v -1.275 c 0.9911,-0.3311 1.916,-0.6605 2.399,-1.823 0.4807,-1.162 0.0572,-2.049 -0.4059,-2.984 L 6.5411,5.6499 c 0.9058,0.4444 1.803,0.897 2.984,0.4059 1.162,-0.4807 1.492,-1.407 1.823,-2.399 h 1.275 c 0.3311,0.9911 0.6605,1.916 1.823,2.399 1.181,0.4911 2.087,0.0385 2.984,-0.4059 l 0.9058,0.9064 c -0.4631,0.9355 -0.8888,1.822 -0.4059,2.984 0.4807,1.162 1.407,1.493 2.399,1.823 v 1.275 c -0.9911,0.3311 -1.916,0.6605 -2.399,1.823 z"
       id="path2-6" /></g></svg>
