<svg xmlns="http://www.w3.org/2000/svg" width="24" height="24" fill-rule="evenodd" clip-rule="evenodd" image-rendering="optimizeQuality" shape-rendering="geometricPrecision" text-rendering="geometricPrecision" viewBox="0 0 235.29 235.29">
   <path fill="#fff" d="M223.53 170.59l-70.59 0 0 52.94 70.59 0 0 -52.94zm-26.47 -44.12l38.23 0 0 -17.65 -108.82 0 0 -26.47 -17.65 0 0 26.47 -108.82 -0 0 17.65 38.23 0 0 26.47 17.65 0 0 -26.47 123.53 0 0 26.47 17.65 -0 0 -26.47zm-114.71 44.12l-70.59 0 0 52.94 70.59 0 0 -52.94zm-17.65 17.65l0 17.65 -35.29 -0 0 -17.65 35.29 0zm141.18 0l0 17.65 -35.29 -0 0 -17.65 35.29 0z"></path>
   <path fill="#fa6831" d="M152.94 11.76l-70.59 0 0 52.94 70.59 0 0 -52.94zm-17.64 17.65l0 17.65 -35.3 -0 0 -17.65 35.3 0z"></path>
</svg>