<?xml version="1.0" encoding="UTF-8" standalone="no"?>
<!-- Created with Inkscape (http://www.inkscape.org/) -->

<svg
   width="64mm"
   height="64mm"
   viewBox="0 0 64 64"
   version="1.1"
   id="svg5"
   xml:space="preserve"
   inkscape:version="1.2.2 (732a01da63, 2022-12-09)"
   sodipodi:docname="klipper.svg"
   xmlns:inkscape="http://www.inkscape.org/namespaces/inkscape"
   xmlns:sodipodi="http://sodipodi.sourceforge.net/DTD/sodipodi-0.dtd"
   xmlns="http://www.w3.org/2000/svg"
   xmlns:svg="http://www.w3.org/2000/svg"><sodipodi:namedview
     id="namedview7"
     pagecolor="#505050"
     bordercolor="#ffffff"
     borderopacity="1"
     inkscape:showpageshadow="0"
     inkscape:pageopacity="0"
     inkscape:pagecheckerboard="1"
     inkscape:deskcolor="#505050"
     inkscape:document-units="mm"
     showgrid="false"
     showguides="true"
     inkscape:zoom="1.4770342"
     inkscape:cx="154.36338"
     inkscape:cy="260.65747"
     inkscape:window-width="1920"
     inkscape:window-height="1009"
     inkscape:window-x="-8"
     inkscape:window-y="568"
     inkscape:window-maximized="1"
     inkscape:current-layer="layer1"><sodipodi:guide
       position="0,31.999999"
       orientation="0,1"
       id="guide355"
       inkscape:locked="false"
       inkscape:label=""
       inkscape:color="rgb(0,134,229)" /></sodipodi:namedview><defs
     id="defs2">
	
	
	
</defs><g
     inkscape:label="Vrstva 1"
     inkscape:groupmode="layer"
     id="layer1"><path
       class="st0"
       d="m 52.84174,18.211006 1.17987,1.368646 c 0.660728,0.755125 1.17987,2.123771 1.17987,3.114852 v 18.972301 c 0,0.991099 -0.519142,2.359741 -1.17987,3.114852 l -1.17987,1.368646 c -0.660724,0.75513 -1.179866,0.519138 -1.179866,-0.424745 V 18.682945 c 0,-0.991082 0.519142,-1.179853 1.179866,-0.471939 z m 7.315191,8.825424 -0.141577,-0.141627 C 59.354631,26.234088 58.78829,26.470057 58.78829,27.41394 v 4.105956 5.144232 c 0,0.943882 0.566341,1.17987 1.227064,0.519137 l 0.141577,-0.141627 c 2.7845,-2.784486 2.7845,-7.220791 0,-10.005281 z M 46.187282,14.765782 c -0.943896,-0.330366 -1.651819,0.188794 -1.651819,1.132677 v 32.234025 c 0,0.991099 0.755116,1.510236 1.651819,1.132676 l 0.235974,-0.09436 c 0.943892,-0.330367 1.651813,-1.415845 1.651813,-2.406944 V 17.267123 c 0,-0.991081 -0.755115,-2.076559 -1.651813,-2.406926 z M 39.06087,14.435416 c -0.943896,0.330366 -1.699012,1.368664 -1.699012,2.359745 V 47.28298 c 0,0.991099 0.755116,2.029374 1.699012,2.265348 l 0.141577,0.04727 c 0.943892,0.283168 1.699008,-0.283168 1.699008,-1.274249 V 15.756955 c 0,-0.9911 -0.80231,-1.604634 -1.746206,-1.368646 z m -7.173606,2.878887 c -0.896697,0.37756 -1.651818,1.510237 -1.651818,2.501318 V 44.26252 c 0,0.991081 0.755121,2.076572 1.651818,2.501318 l 0.283168,0.141627 c 0.896703,0.377547 1.651819,-0.09436 1.651819,-1.085492 V 18.305434 c 0,-0.991099 -0.755116,-1.463038 -1.651819,-1.085473 z m -7.12641,3.067654 c -0.896698,0.377565 -1.651814,1.510242 -1.651814,2.501341 V 41.28924 c 0,0.991099 0.755116,2.076573 1.651814,2.501336 l 0.283172,0.141627 c 0.896698,0.377565 1.651814,-0.09436 1.651814,-1.085473 V 28.735497 21.325913 c 0,-0.991081 -0.755116,-1.463039 -1.651814,-1.085478 z m -7.126408,3.020478 c -0.896702,0.377547 -1.651817,1.510224 -1.651817,2.501323 v 12.317823 c 0,0.9911 0.755115,2.076578 1.651817,2.501323 l 0.283168,0.141627 c 0.896703,0.377565 1.651814,-0.09436 1.651814,-1.085478 v -15.3855 c 0,-0.991081 -0.755111,-1.463043 -1.651814,-1.085478 z M 10.791203,26.2813 10.508035,26.422932 C 9.6113343,26.800497 8.8562186,27.933169 8.8562186,28.92425 v 6.276908 c 0,0.991081 0.7551157,2.076577 1.6518164,2.501318 l 0.283168,0.141632 c 0.896702,0.377546 1.651818,-0.09436 1.651818,-1.085497 v -9.297367 c 0,-1.038275 -0.755116,-1.557417 -1.651818,-1.179871 z m -6.7488508,2.97328 c -3.11485508,1.557422 -3.11485508,4.058758 0,5.568976 v 0 c 0.7079214,0.330367 1.2270625,-0.188771 1.2270625,-1.17987 v -3.25643 c 0,-0.9439 -0.7079213,-1.415844 -1.2270625,-1.132676 z"
       id="path68"
       style="stroke-width:0.471948" /></g><style
     type="text/css"
     id="style66">
	.st0{fill-rule:evenodd;clip-rule:evenodd;}
</style></svg>
